M48
;Layer_Color=9474304
;FILE_FORMAT=2:5
INCH,LZ
;TYPE=PLATED
T01F00S00C0.01200
T03F00S00C0.02800
T04F00S00C0.04000
%
T01
X00307Y00084
X0038Y00165
Y0025
X0046Y0026
X00476Y00224
X0047733Y0019203
X0046Y00155
X00525
X00585
X0063Y0024
X00584Y00289
X0055Y0029
X0051
X0049894Y0035706
X0058Y005
X0066Y0054
X00772Y00521
X00785Y00479
X00861Y00484
X00771Y0058
X00725Y00655
X0073Y0075
X0069
X0071Y0077
X0073Y0079
X0069
X0067Y00885
X00779Y00875
X00794Y00839
X0089Y007
X00924Y0062
X0054732Y0064581
X00459Y0067
X00465Y00705
Y00744
Y00776
X00458Y00833
X00473Y00864
X00375Y00805
X0035548Y0077961
X0032348
X00305Y00835
X0019259Y0090517
X00378Y00724
X0029Y0061
X003Y00555
X00295Y00415
X0019896Y0034606
X0046Y0059
X00731Y00167
X00765Y00168
X0098Y0034
X0102
X0106
X011
X0114
X0118
Y0041
X0114
X011
X0106
X0102
X0098
Y0047
X0102
X0106
X011
X0114
X0118
X0131Y00546
X01445Y0055
X01652Y00592
X01729Y00602
X01702Y00645
X0176
X01812Y00633
X01946Y00667
X01982Y00676
X01989Y00731
X0201439Y0070632
X02069Y00634
X02056Y00602
X02065Y00567
X02075Y0053
X02015Y0052
Y0044599
X02055Y0036
X02031Y00332
X02004Y00298
X0193589Y00355
X01885Y00339
X01814Y00216
X01712Y00186
X0160993Y0035578
X01606Y00402
X01504Y00338
X01762Y00467
Y00499
X0228Y0050004
Y00565
X02363Y00532
X02427
X02428Y00467
X02363
X02395Y0038496
X0239504Y0028077
X0242847Y0031294
X0246197Y0028077
X024954Y0031294
X0236154
X0232811Y0028077
X0229461Y0031294
X0226118Y0028077
X0222768Y0031294
X0219425Y0028077
X0216Y0031
X02177Y00369
X0228Y0043508
X0226193Y00665
X02195
X02162Y00701
X0222772Y0071917
X0229465
X0236157
X024285
X0249543
X0246272Y00665
X0239579
X0239508Y0061504
X0232886Y00665
X02385Y0086
X02475Y00893
X0212Y00185
X01226Y0076608
X0094Y0078
X0093893Y0082242
X00938Y00541
X0251008Y0056492
Y0049996
Y00435
X0263Y0043386
Y0046732
Y0050079
Y0053425
Y0056772
Y0060118
Y0063465
Y0066811
Y0070157
X02595Y00815
X025Y00895
X0263Y0040039
Y0036693
Y0033347
Y003
Y0026654
X0256239Y002808
X0252893
X026Y0012
X02668Y00184
T03
X00375Y0045
Y005
Y0055
T04
X0035Y0005
X0045
X0055
X0065
X0075
X0085
X0095
X0105
X0115
X0125
X0135
X0145
X0155
X0165
X0175
X0185
X0195
X0205
X0215
X0225
X0235
X0245
X0255
X0265
Y0095
X0255
X0245
X0235
X0225
X0215
X0205
X0195
X0185
X0175
X0165
X0155
X0145
X0135
X0125
X0115
X0105
X0095
X0085
X0075
X0065
X0055
X0045
X0035
M30
