G04*
G04 #@! TF.GenerationSoftware,Altium Limited,Altium Designer,24.9.1 (31)*
G04*
G04 Layer_Physical_Order=1*
G04 Layer_Color=255*
%FSLAX25Y25*%
%MOIN*%
G70*
G04*
G04 #@! TF.SameCoordinates,0C4B9269-15E2-45E3-B218-B4FFBFC8B41E*
G04*
G04*
G04 #@! TF.FilePolarity,Positive*
G04*
G01*
G75*
%ADD14C,0.00600*%
%ADD18R,0.04724X0.04724*%
%ADD19R,0.03150X0.01575*%
%ADD20R,0.01575X0.03150*%
%ADD21R,0.03150X0.03150*%
%ADD22R,0.06102X0.05118*%
G04:AMPARAMS|DCode=23|XSize=53.43mil|YSize=22.53mil|CornerRadius=11.26mil|HoleSize=0mil|Usage=FLASHONLY|Rotation=0.000|XOffset=0mil|YOffset=0mil|HoleType=Round|Shape=RoundedRectangle|*
%AMROUNDEDRECTD23*
21,1,0.05343,0.00000,0,0,0.0*
21,1,0.03091,0.02253,0,0,0.0*
1,1,0.02253,0.01545,0.00000*
1,1,0.02253,-0.01545,0.00000*
1,1,0.02253,-0.01545,0.00000*
1,1,0.02253,0.01545,0.00000*
%
%ADD23ROUNDEDRECTD23*%
%ADD24R,0.05343X0.02253*%
%ADD25R,0.04528X0.02362*%
%ADD26R,0.04528X0.01181*%
%ADD27R,0.00955X0.03306*%
G04:AMPARAMS|DCode=28|XSize=33.06mil|YSize=9.55mil|CornerRadius=4.77mil|HoleSize=0mil|Usage=FLASHONLY|Rotation=270.000|XOffset=0mil|YOffset=0mil|HoleType=Round|Shape=RoundedRectangle|*
%AMROUNDEDRECTD28*
21,1,0.03306,0.00000,0,0,270.0*
21,1,0.02351,0.00955,0,0,270.0*
1,1,0.00955,0.00000,-0.01176*
1,1,0.00955,0.00000,0.01176*
1,1,0.00955,0.00000,0.01176*
1,1,0.00955,0.00000,-0.01176*
%
%ADD28ROUNDEDRECTD28*%
G04:AMPARAMS|DCode=29|XSize=9.55mil|YSize=33.06mil|CornerRadius=4.77mil|HoleSize=0mil|Usage=FLASHONLY|Rotation=270.000|XOffset=0mil|YOffset=0mil|HoleType=Round|Shape=RoundedRectangle|*
%AMROUNDEDRECTD29*
21,1,0.00955,0.02351,0,0,270.0*
21,1,0.00000,0.03306,0,0,270.0*
1,1,0.00955,-0.01176,0.00000*
1,1,0.00955,-0.01176,0.00000*
1,1,0.00955,0.01176,0.00000*
1,1,0.00955,0.01176,0.00000*
%
%ADD29ROUNDEDRECTD29*%
%ADD30R,0.02126X0.02362*%
%ADD31R,0.02362X0.02126*%
G04:AMPARAMS|DCode=32|XSize=23.23mil|YSize=24.02mil|CornerRadius=1.74mil|HoleSize=0mil|Usage=FLASHONLY|Rotation=180.000|XOffset=0mil|YOffset=0mil|HoleType=Round|Shape=RoundedRectangle|*
%AMROUNDEDRECTD32*
21,1,0.02323,0.02053,0,0,180.0*
21,1,0.01974,0.02402,0,0,180.0*
1,1,0.00348,-0.00987,0.01027*
1,1,0.00348,0.00987,0.01027*
1,1,0.00348,0.00987,-0.01027*
1,1,0.00348,-0.00987,-0.01027*
%
%ADD32ROUNDEDRECTD32*%
G04:AMPARAMS|DCode=33|XSize=23.23mil|YSize=24.02mil|CornerRadius=1.74mil|HoleSize=0mil|Usage=FLASHONLY|Rotation=90.000|XOffset=0mil|YOffset=0mil|HoleType=Round|Shape=RoundedRectangle|*
%AMROUNDEDRECTD33*
21,1,0.02323,0.02053,0,0,90.0*
21,1,0.01974,0.02402,0,0,90.0*
1,1,0.00348,0.01027,0.00987*
1,1,0.00348,0.01027,-0.00987*
1,1,0.00348,-0.01027,-0.00987*
1,1,0.00348,-0.01027,0.00987*
%
%ADD33ROUNDEDRECTD33*%
G04:AMPARAMS|DCode=34|XSize=25.2mil|YSize=28.35mil|CornerRadius=3.15mil|HoleSize=0mil|Usage=FLASHONLY|Rotation=180.000|XOffset=0mil|YOffset=0mil|HoleType=Round|Shape=RoundedRectangle|*
%AMROUNDEDRECTD34*
21,1,0.02520,0.02205,0,0,180.0*
21,1,0.01890,0.02835,0,0,180.0*
1,1,0.00630,-0.00945,0.01102*
1,1,0.00630,0.00945,0.01102*
1,1,0.00630,0.00945,-0.01102*
1,1,0.00630,-0.00945,-0.01102*
%
%ADD34ROUNDEDRECTD34*%
G04:AMPARAMS|DCode=35|XSize=25.2mil|YSize=28.35mil|CornerRadius=3.15mil|HoleSize=0mil|Usage=FLASHONLY|Rotation=90.000|XOffset=0mil|YOffset=0mil|HoleType=Round|Shape=RoundedRectangle|*
%AMROUNDEDRECTD35*
21,1,0.02520,0.02205,0,0,90.0*
21,1,0.01890,0.02835,0,0,90.0*
1,1,0.00630,0.01102,0.00945*
1,1,0.00630,0.01102,-0.00945*
1,1,0.00630,-0.01102,-0.00945*
1,1,0.00630,-0.01102,0.00945*
%
%ADD35ROUNDEDRECTD35*%
G04:AMPARAMS|DCode=36|XSize=125.98mil|YSize=68.9mil|CornerRadius=2.07mil|HoleSize=0mil|Usage=FLASHONLY|Rotation=90.000|XOffset=0mil|YOffset=0mil|HoleType=Round|Shape=RoundedRectangle|*
%AMROUNDEDRECTD36*
21,1,0.12598,0.06476,0,0,90.0*
21,1,0.12185,0.06890,0,0,90.0*
1,1,0.00413,0.03238,0.06093*
1,1,0.00413,0.03238,-0.06093*
1,1,0.00413,-0.03238,-0.06093*
1,1,0.00413,-0.03238,0.06093*
%
%ADD36ROUNDEDRECTD36*%
G04:AMPARAMS|DCode=37|XSize=35.43mil|YSize=68.9mil|CornerRadius=1.95mil|HoleSize=0mil|Usage=FLASHONLY|Rotation=90.000|XOffset=0mil|YOffset=0mil|HoleType=Round|Shape=RoundedRectangle|*
%AMROUNDEDRECTD37*
21,1,0.03543,0.06500,0,0,90.0*
21,1,0.03154,0.06890,0,0,90.0*
1,1,0.00390,0.03250,0.01577*
1,1,0.00390,0.03250,-0.01577*
1,1,0.00390,-0.03250,-0.01577*
1,1,0.00390,-0.03250,0.01577*
%
%ADD37ROUNDEDRECTD37*%
%ADD38R,0.01378X0.02559*%
%ADD39R,0.02559X0.01378*%
%ADD44R,0.08071X0.08071*%
G04:AMPARAMS|DCode=55|XSize=39.37mil|YSize=86.61mil|CornerRadius=19.68mil|HoleSize=0mil|Usage=FLASHONLY|Rotation=270.000|XOffset=0mil|YOffset=0mil|HoleType=Round|Shape=RoundedRectangle|*
%AMROUNDEDRECTD55*
21,1,0.03937,0.04724,0,0,270.0*
21,1,0.00000,0.08661,0,0,270.0*
1,1,0.03937,-0.02362,0.00000*
1,1,0.03937,-0.02362,0.00000*
1,1,0.03937,0.02362,0.00000*
1,1,0.03937,0.02362,0.00000*
%
%ADD55ROUNDEDRECTD55*%
G04:AMPARAMS|DCode=56|XSize=39.37mil|YSize=70.87mil|CornerRadius=19.68mil|HoleSize=0mil|Usage=FLASHONLY|Rotation=270.000|XOffset=0mil|YOffset=0mil|HoleType=Round|Shape=RoundedRectangle|*
%AMROUNDEDRECTD56*
21,1,0.03937,0.03150,0,0,270.0*
21,1,0.00000,0.07087,0,0,270.0*
1,1,0.03937,-0.01575,0.00000*
1,1,0.03937,-0.01575,0.00000*
1,1,0.03937,0.01575,0.00000*
1,1,0.03937,0.01575,0.00000*
%
%ADD56ROUNDEDRECTD56*%
%ADD61R,0.01575X0.01575*%
%ADD62C,0.02000*%
%ADD63C,0.01500*%
%ADD64C,0.00603*%
%ADD65C,0.01010*%
%ADD66C,0.01200*%
%ADD67C,0.01001*%
%ADD68R,0.06400X0.06400*%
%ADD69C,0.06400*%
%ADD70R,0.04000X0.04000*%
%ADD71C,0.04000*%
%ADD72C,0.02400*%
G36*
X251400Y90000D02*
Y87800D01*
X251600Y87600D01*
X252065D01*
X252475Y87100D01*
X252459Y87020D01*
Y84815D01*
X252502Y84602D01*
X252100Y84200D01*
X245000D01*
X244512Y84688D01*
X244553Y84898D01*
Y87102D01*
X244512Y87312D01*
X245000Y87800D01*
X245500Y87800D01*
X245800Y88100D01*
X245800Y88176D01*
X245800Y89900D01*
X246800Y90900D01*
X250500D01*
X251400Y90000D01*
D02*
G37*
G36*
X87408Y79700D02*
X85400D01*
X82500Y82600D01*
X78900Y82600D01*
X78208Y82932D01*
Y84600D01*
X78708Y85100D01*
X79308D01*
X82308Y88100D01*
X86208D01*
X86308Y88200D01*
X87408D01*
Y79700D01*
D02*
G37*
G36*
X60000Y71100D02*
Y70400D01*
X57000Y67400D01*
X55900Y66300D01*
X55900Y59200D01*
X56100Y59000D01*
X59200D01*
X59500Y58700D01*
Y57000D01*
X59000Y56500D01*
X55400D01*
X53500Y58400D01*
Y67130D01*
X53553Y67398D01*
Y69602D01*
X54004Y69900D01*
X56700D01*
X58600Y71800D01*
X59300Y71800D01*
X60000Y71100D01*
D02*
G37*
G36*
X43700Y67438D02*
Y66562D01*
Y64208D01*
X43679Y64102D01*
Y61898D01*
X43700Y61792D01*
Y53020D01*
X36600Y53020D01*
X36502Y53000D01*
X34700D01*
Y67500D01*
X43700D01*
Y67438D01*
D02*
G37*
G36*
X252300Y37000D02*
X226700D01*
Y63000D01*
X252300D01*
Y37000D01*
D02*
G37*
G36*
X44800Y52000D02*
X56300Y40500D01*
X62300Y40500D01*
X62600Y40500D01*
X69300D01*
X70300Y39500D01*
Y36500D01*
X69300Y35500D01*
X62500D01*
X61300Y36700D01*
X59775D01*
X59669Y36721D01*
X57464D01*
X57358Y36700D01*
X52700D01*
X41400Y48000D01*
X36500D01*
X35300Y49200D01*
Y50700D01*
X36600Y52000D01*
X44800Y52000D01*
D02*
G37*
G36*
X120000Y48000D02*
Y39000D01*
X121000Y38000D01*
X128000D01*
X129000Y37000D01*
Y29600D01*
X121400Y22000D01*
X86197Y22000D01*
X86000Y22039D01*
X77961D01*
X73700Y26300D01*
X61300Y26300D01*
X60000Y25000D01*
Y22902D01*
X59602Y22553D01*
X57398D01*
X57179Y22510D01*
X57130Y22520D01*
X53870D01*
X53821Y22510D01*
X53602Y22553D01*
X51398D01*
X51000Y22969D01*
Y26000D01*
X49700Y27300D01*
Y30700D01*
X54000Y35000D01*
X56600D01*
X57256Y35656D01*
X57464Y35614D01*
X59669D01*
X60000Y35680D01*
X60320D01*
X61000Y35000D01*
Y33700D01*
X70700D01*
X76000Y39000D01*
X88000D01*
X96000Y47000D01*
X98000Y49000D01*
X119000D01*
X120000Y48000D01*
D02*
G37*
G36*
X36402Y47000D02*
X36500Y46980D01*
X40620D01*
X43500Y44100D01*
Y37070D01*
X43447Y36802D01*
Y34598D01*
X43500Y34330D01*
Y30100D01*
X35000D01*
Y45900D01*
X36100Y47000D01*
X36402D01*
D02*
G37*
G36*
X69300Y21389D02*
Y18100D01*
X68300Y17100D01*
X64100Y17100D01*
X60800Y13800D01*
X52200D01*
X51000Y15000D01*
Y21031D01*
X51398Y21447D01*
X53602D01*
X53870Y21500D01*
X57130D01*
X57398Y21447D01*
X59602D01*
X59870Y21500D01*
X69189D01*
X69300Y21389D01*
D02*
G37*
D14*
X166500Y25049D02*
X166550D01*
X164245D02*
X166500D01*
Y19300D02*
Y25049D01*
X123000Y45800D02*
X131434Y37366D01*
Y30966D02*
Y37366D01*
Y30966D02*
X137930Y24470D01*
X153530D01*
X123000Y45800D02*
Y57800D01*
X134700Y16142D02*
X155650D01*
X153530Y24470D02*
X155650Y22350D01*
Y16142D02*
Y22350D01*
X193589Y35500D02*
X199200D01*
X207007Y43307D01*
X200400Y29800D02*
X200461Y29861D01*
X211884D01*
X211945Y29921D01*
X207764Y14965D02*
Y16236D01*
X192928Y22900D02*
X201100D01*
X207764Y16236D01*
X198900Y20900D02*
X201799Y18001D01*
Y14300D02*
Y18001D01*
X192100Y20900D02*
X198900D01*
X172900Y42928D02*
Y60200D01*
Y42928D02*
X192928Y22900D01*
X199434Y80634D02*
X252042D01*
X197349Y78549D02*
X199434Y80634D01*
X231000Y84000D02*
X240967Y93967D01*
X196701Y84000D02*
X231000D01*
X158832Y18832D02*
X166300D01*
X156142Y16142D02*
X158832Y18832D01*
X63600Y64100D02*
X65400Y65900D01*
X63600Y61332D02*
Y64100D01*
X101700Y76700D02*
X105998D01*
X99550Y74550D02*
X101700Y76700D01*
X99550Y70050D02*
Y74550D01*
X105998Y76700D02*
X106158Y76860D01*
X99550Y70050D02*
X99600Y70001D01*
Y70001D02*
Y70001D01*
X256118Y22559D02*
X256236Y22441D01*
X117800Y63000D02*
X123000Y57800D01*
X124350Y16142D02*
X134700D01*
X113742Y63000D02*
X117800D01*
X85299Y62000D02*
Y68301D01*
X78541Y73063D02*
X80537D01*
X85299Y68301D01*
X240967Y93967D02*
X243967D01*
X252042Y80634D02*
X252761Y79914D01*
Y77687D02*
Y79914D01*
Y77687D02*
X252890Y77559D01*
X243967Y93967D02*
X245000Y95000D01*
X24764Y26929D02*
X28129D01*
X29601Y28401D01*
X24764Y15118D02*
X28782D01*
X78541Y78969D02*
X83251D01*
X82392Y77000D02*
X83300Y76091D01*
X78541Y75032D02*
X81468D01*
X78541Y77000D02*
X82392D01*
X76091Y87491D02*
X77891D01*
X74937Y86337D02*
X76091Y87491D01*
X74937Y85694D02*
Y86337D01*
Y66963D02*
Y69459D01*
X67063Y67563D02*
Y69459D01*
X65400Y65900D02*
X67063Y67563D01*
X24764Y71102D02*
X29963D01*
X28128Y83836D02*
Y84628D01*
X30500Y87000D01*
X24854Y83004D02*
X26926D01*
X24764Y82913D02*
X24854Y83004D01*
X27483Y83191D02*
X28128Y83836D01*
X27113Y83191D02*
X27483D01*
X26926Y83004D02*
X27113Y83191D01*
X203100Y33200D02*
X203134Y33234D01*
X170200Y42800D02*
Y64500D01*
Y42800D02*
X192100Y20900D01*
X160993Y28301D02*
Y35578D01*
Y28301D02*
X164245Y25049D01*
X98286Y77496D02*
Y81385D01*
X90755Y75200D02*
X95990D01*
X98286Y77496D01*
X83251Y78969D02*
X85120Y77100D01*
X88855D02*
X90755Y75200D01*
X85120Y77100D02*
X88855D01*
X93027Y70100D02*
X99501D01*
X84291Y75100D02*
X88027D01*
X93027Y70100D01*
X107665Y80935D02*
X111227Y77373D01*
X98365Y80935D02*
X107665D01*
X98369Y84340D02*
X106158D01*
X40299Y85701D02*
X42800D01*
X39000Y87000D02*
X40299Y85701D01*
X30500Y87000D02*
X39000D01*
X32065Y69000D02*
X38218D01*
X39418Y70199D01*
X41800D01*
X29963Y71102D02*
X32065Y69000D01*
X207500Y53000D02*
X207673Y53173D01*
X211772D02*
X211945Y53347D01*
X207673Y53173D02*
X211772D01*
X207053Y37932D02*
Y39254D01*
X205500Y36000D02*
Y36379D01*
X207053Y39254D02*
X207761Y39961D01*
X205500Y36379D02*
X207053Y37932D01*
X41906Y14405D02*
X42200Y14699D01*
X39100Y13100D02*
X40405Y14405D01*
X32100Y13100D02*
X39100D01*
X40405Y14405D02*
X41906D01*
X111227Y65744D02*
Y77373D01*
X107369Y59838D02*
Y61886D01*
X111227Y65744D01*
X106258Y59260D02*
X106790D01*
X107369Y59838D01*
X77891Y87491D02*
X77900Y87500D01*
X81468Y75032D02*
X86300Y70200D01*
X88800D01*
X89000Y70000D01*
X85299Y57000D02*
Y62000D01*
X205000Y5000D02*
X205201Y5201D01*
Y14300D01*
X242847Y22438D02*
Y31294D01*
X246197Y22441D02*
Y28077D01*
X214701Y5299D02*
X215000Y5000D01*
X214701Y5299D02*
Y14000D01*
X208528Y14200D02*
X211499D01*
X207764Y14965D02*
X208528Y14200D01*
X83200Y52000D02*
X85299D01*
X74937Y66963D02*
X76400Y65500D01*
X80100Y55100D02*
Y61800D01*
Y55100D02*
X83200Y52000D01*
X76400Y65500D02*
X80100Y61800D01*
X99201Y66500D02*
Y66701D01*
X106138Y66620D02*
X106258Y66740D01*
X99764Y66620D02*
X106138D01*
X99201Y66701D02*
X99500Y67000D01*
Y66884D02*
X99764Y66620D01*
X99500Y66884D02*
Y67000D01*
X28782Y15118D02*
X30800Y13100D01*
X32100D01*
X37699Y27701D02*
X42500D01*
X36999Y28401D02*
X37699Y27701D01*
X29601Y28401D02*
X36999D01*
X58100Y61301D02*
X58116Y61317D01*
X63584D01*
X63600Y61332D01*
X118900Y67600D02*
X120358Y66142D01*
X155650D01*
X118900Y67600D02*
Y79300D01*
X184400Y87100D02*
X189799Y81701D01*
Y78500D02*
Y81701D01*
X165200Y80700D02*
X171600Y87100D01*
X165200Y68132D02*
Y80700D01*
X171600Y87100D02*
X184400D01*
X164893Y67826D02*
X165200Y68132D01*
X155650Y66142D02*
X160599D01*
X162283Y67826D01*
X164893D01*
X113642Y80600D02*
Y80742D01*
X113800Y80900D01*
X114314Y80386D02*
X117814D01*
X118900Y79300D01*
X113800Y80900D02*
X114314Y80386D01*
X188500Y33800D02*
Y33900D01*
Y33800D02*
X195725Y26575D01*
X211945D01*
X212088Y36757D02*
X217557D01*
X211945Y36614D02*
X212088Y36757D01*
X217557D02*
X217700Y36900D01*
X259583Y19778D02*
Y22441D01*
X243200Y13200D02*
X253005D01*
X259583Y19778D01*
X235000Y5000D02*
X243200Y13200D01*
X249540Y22438D02*
Y31294D01*
X239504Y22441D02*
Y28077D01*
X236154Y31294D02*
Y32000D01*
Y22438D02*
Y31294D01*
X232811Y22441D02*
Y28077D01*
X229461Y22438D02*
Y31294D01*
X226118Y22441D02*
Y28077D01*
X222768Y22438D02*
Y31294D01*
X219425Y22441D02*
Y28077D01*
X216076Y22438D02*
Y30924D01*
X216000Y31000D02*
X216076Y30924D01*
X203134Y33234D02*
X211098D01*
X211132Y33268D01*
X207761Y39961D02*
X211945D01*
X207007Y43307D02*
X211945D01*
X206504Y56696D02*
X211941D01*
X206500Y56700D02*
X206504Y56696D01*
X211941D02*
X211945Y56693D01*
X205600Y60200D02*
X205730Y60070D01*
X211915D01*
X211945Y60039D01*
X206900Y63400D02*
X206907Y63393D01*
X211938D01*
X211945Y63386D01*
X194600Y66321D02*
X196321Y64600D01*
X203700D01*
X205832Y66732D01*
X194600Y66321D02*
Y66700D01*
X211032Y66732D02*
X211100Y66800D01*
X211877D01*
X211945Y66732D01*
X205832D02*
X211032D01*
X205379Y70079D02*
X211945D01*
X198200Y67600D02*
X202900D01*
X205379Y70079D01*
X204525Y73425D02*
X211945D01*
X201439Y70632D02*
X201732D01*
X204525Y73425D01*
X216079Y77559D02*
X216139Y77498D01*
Y70161D02*
X216200Y70100D01*
X216139Y70161D02*
Y77498D01*
X219463Y66537D02*
Y77522D01*
Y66537D02*
X219500Y66500D01*
X219428Y77556D02*
X219463Y77522D01*
X222772Y71917D02*
Y77553D01*
X226121Y77556D02*
X226155Y77522D01*
Y66537D02*
Y77522D01*
Y66537D02*
X226193Y66500D01*
X229465Y71917D02*
Y77559D01*
X232848Y66537D02*
X232886Y66500D01*
X232848Y66537D02*
Y77522D01*
X232811Y77559D02*
X232848Y77522D01*
X236157Y71917D02*
Y77559D01*
X239541Y66537D02*
X239579Y66500D01*
X239541Y66537D02*
Y77522D01*
X239504Y77559D02*
X239541Y77522D01*
X242850Y71917D02*
Y77559D01*
X246197D02*
X246234Y77522D01*
Y66537D02*
Y77522D01*
Y66537D02*
X246272Y66500D01*
X249543Y71917D02*
Y77559D01*
X193299Y84000D02*
X193500D01*
X193250Y78549D02*
Y83750D01*
X193201Y78500D02*
X193250Y78549D01*
X197349D01*
X193250Y83750D02*
X193500Y84000D01*
X267024Y26614D02*
X267060Y26578D01*
X263000Y26654D02*
X263039Y26614D01*
X83300Y76091D02*
X84291Y75100D01*
X262929Y19829D02*
Y22441D01*
X249133Y6033D02*
X262929Y19829D01*
X246033Y6033D02*
X249133D01*
X245000Y5000D02*
X246033Y6033D01*
X70568Y55300D02*
X70600D01*
X70399Y49800D02*
X70400D01*
X70483Y49883D01*
Y55216D02*
X70568Y55300D01*
D18*
X246000Y50000D02*
D03*
Y43504D02*
D03*
X239504D02*
D03*
X233008D02*
D03*
Y50000D02*
D03*
Y56496D02*
D03*
X239504D02*
D03*
Y50000D02*
D03*
D19*
X267063Y73425D02*
D03*
Y70079D02*
D03*
Y66732D02*
D03*
Y63386D02*
D03*
Y60039D02*
D03*
Y56693D02*
D03*
Y53347D02*
D03*
Y50000D02*
D03*
Y46654D02*
D03*
Y43307D02*
D03*
Y39961D02*
D03*
Y36614D02*
D03*
Y33268D02*
D03*
Y29921D02*
D03*
Y26575D02*
D03*
X211945D02*
D03*
Y29921D02*
D03*
Y33268D02*
D03*
Y36614D02*
D03*
Y39961D02*
D03*
Y43307D02*
D03*
Y46654D02*
D03*
Y50000D02*
D03*
Y53347D02*
D03*
Y56693D02*
D03*
Y60039D02*
D03*
Y63386D02*
D03*
Y66732D02*
D03*
Y70079D02*
D03*
Y73425D02*
D03*
D20*
X262929Y22441D02*
D03*
X259583D02*
D03*
X256236D02*
D03*
X252890D02*
D03*
X249543D02*
D03*
X246197D02*
D03*
X242850D02*
D03*
X239504D02*
D03*
X236157D02*
D03*
X232811D02*
D03*
X229465D02*
D03*
X226118D02*
D03*
X222772D02*
D03*
X219425D02*
D03*
X216079D02*
D03*
Y77559D02*
D03*
X219425D02*
D03*
X222772D02*
D03*
X226118D02*
D03*
X229465D02*
D03*
X232811D02*
D03*
X236157D02*
D03*
X239504D02*
D03*
X242850D02*
D03*
X246197D02*
D03*
X249543D02*
D03*
X252890D02*
D03*
X256236D02*
D03*
X259583D02*
D03*
X262929D02*
D03*
D21*
X211945Y22441D02*
D03*
X267063D02*
D03*
X211945Y77559D02*
D03*
X267063D02*
D03*
D22*
X124350Y83858D02*
D03*
X155650D02*
D03*
X124350Y66142D02*
D03*
X155650D02*
D03*
X124350Y33858D02*
D03*
X155650D02*
D03*
X124350Y16142D02*
D03*
X155650D02*
D03*
D23*
X113742Y63000D02*
D03*
X106258Y59260D02*
D03*
X113642Y80600D02*
D03*
X106158Y76860D02*
D03*
D24*
X106258Y66740D02*
D03*
X106158Y84340D02*
D03*
D25*
X24764Y65394D02*
D03*
Y90591D02*
D03*
Y87441D02*
D03*
Y68543D02*
D03*
Y9409D02*
D03*
Y34606D02*
D03*
Y31457D02*
D03*
Y12559D02*
D03*
D26*
Y71102D02*
D03*
Y73071D02*
D03*
Y75039D02*
D03*
Y77008D02*
D03*
Y78976D02*
D03*
Y80945D02*
D03*
Y82913D02*
D03*
Y84882D02*
D03*
Y15118D02*
D03*
Y17087D02*
D03*
Y19055D02*
D03*
Y21024D02*
D03*
Y22992D02*
D03*
Y24961D02*
D03*
Y26929D02*
D03*
Y28898D02*
D03*
D27*
X74937Y84541D02*
D03*
D28*
X72969D02*
D03*
X71000D02*
D03*
X69032D02*
D03*
X67063D02*
D03*
Y69459D02*
D03*
X69032D02*
D03*
X71000D02*
D03*
X72969D02*
D03*
X74937D02*
D03*
D29*
X63459Y80937D02*
D03*
Y78969D02*
D03*
Y77000D02*
D03*
Y75032D02*
D03*
Y73063D02*
D03*
X78541D02*
D03*
Y75032D02*
D03*
Y77000D02*
D03*
Y78969D02*
D03*
Y80937D02*
D03*
D30*
X62099Y49800D02*
D03*
X65501D02*
D03*
X73801D02*
D03*
X70399D02*
D03*
X89663Y80972D02*
D03*
X86261D02*
D03*
X196701Y84000D02*
D03*
X193299D02*
D03*
X51299Y73500D02*
D03*
X54701D02*
D03*
X51299Y78500D02*
D03*
X54701D02*
D03*
X189799D02*
D03*
X193201D02*
D03*
X211499Y14200D02*
D03*
X214901D02*
D03*
X201799Y14300D02*
D03*
X205201D02*
D03*
X85299Y52000D02*
D03*
X88701D02*
D03*
X85299Y62000D02*
D03*
X88701D02*
D03*
Y57000D02*
D03*
X85299D02*
D03*
X193799Y52000D02*
D03*
X197201D02*
D03*
X193799Y44500D02*
D03*
X197201D02*
D03*
X189201Y52000D02*
D03*
X185799D02*
D03*
X189201Y44500D02*
D03*
X185799D02*
D03*
X134416Y50400D02*
D03*
X131015D02*
D03*
D31*
X166550Y25049D02*
D03*
Y28451D02*
D03*
X58100Y57899D02*
D03*
Y61301D02*
D03*
X176000Y80299D02*
D03*
Y83701D02*
D03*
Y20501D02*
D03*
Y17099D02*
D03*
X41800Y70199D02*
D03*
Y73601D02*
D03*
X42800Y85701D02*
D03*
Y82299D02*
D03*
X99600Y70001D02*
D03*
Y66599D02*
D03*
X42500Y14299D02*
D03*
Y17701D02*
D03*
Y27701D02*
D03*
Y24299D02*
D03*
X98365Y80935D02*
D03*
Y84336D02*
D03*
D32*
X144449Y50400D02*
D03*
X141182D02*
D03*
D33*
X176000Y75634D02*
D03*
Y72366D02*
D03*
Y28434D02*
D03*
Y25166D02*
D03*
D34*
X251280Y85917D02*
D03*
X254745D02*
D03*
X245732Y86000D02*
D03*
X242268D02*
D03*
X70568Y61100D02*
D03*
X74032D02*
D03*
X70568Y55300D02*
D03*
X74032D02*
D03*
X54732Y68500D02*
D03*
X51268D02*
D03*
X86230Y86472D02*
D03*
X89694D02*
D03*
X42500Y63000D02*
D03*
X45965D02*
D03*
X42268Y35700D02*
D03*
X45732D02*
D03*
X261268Y86000D02*
D03*
X264732D02*
D03*
X265832Y14500D02*
D03*
X262368D02*
D03*
X54732Y84000D02*
D03*
X51268D02*
D03*
D35*
X63600Y61332D02*
D03*
Y57868D02*
D03*
X166300Y18832D02*
D03*
Y15368D02*
D03*
X165200Y64668D02*
D03*
Y68132D02*
D03*
X58566Y37900D02*
D03*
Y34435D02*
D03*
X58500Y20268D02*
D03*
Y23732D02*
D03*
X52500Y20268D02*
D03*
Y23732D02*
D03*
D36*
X90303Y29000D02*
D03*
D37*
X65697Y19945D02*
D03*
Y29000D02*
D03*
Y38055D02*
D03*
D38*
X32953Y62900D02*
D03*
X35512D02*
D03*
X33161Y35700D02*
D03*
X35720D02*
D03*
D39*
X34050Y83466D02*
D03*
Y80907D02*
D03*
X34184Y72430D02*
D03*
Y74989D02*
D03*
X34000Y25280D02*
D03*
Y22720D02*
D03*
Y16220D02*
D03*
Y18779D02*
D03*
D44*
X71000Y77000D02*
D03*
D55*
X6752Y95000D02*
D03*
Y60984D02*
D03*
Y39016D02*
D03*
Y5000D02*
D03*
D56*
X22500Y95000D02*
D03*
Y60984D02*
D03*
Y39016D02*
D03*
Y5000D02*
D03*
D61*
X246000Y56496D02*
D03*
D62*
X62099Y49800D02*
Y49861D01*
X58077Y49924D02*
X62036D01*
X58000Y50000D02*
X58077Y49924D01*
X62036D02*
X62099Y49861D01*
X74292Y54883D02*
X74417D01*
X77200Y52100D01*
X74032Y55142D02*
Y55268D01*
Y55142D02*
X74292Y54883D01*
Y60683D02*
X74417D01*
X74032Y60943D02*
X74292Y60683D01*
X74417D02*
X77100Y58000D01*
X74032Y60943D02*
Y61068D01*
X131000Y54600D02*
X131007Y54593D01*
Y50407D02*
Y54593D01*
Y50407D02*
X131015Y50400D01*
X113753Y18300D02*
X120471Y11583D01*
X24764Y31457D02*
X30000D01*
X37157D01*
X120471Y11583D02*
X173683D01*
X86000Y20000D02*
X87700Y18300D01*
X113753D01*
X73572Y20000D02*
X86000D01*
X69573Y24000D02*
X73572Y20000D01*
X63108Y24000D02*
X69573D01*
X238500Y86000D02*
X242268D01*
X264732Y94732D02*
X265000Y95000D01*
X264732Y82248D02*
Y94732D01*
X261266Y86001D02*
X261268Y86000D01*
X255000Y95000D02*
X261266Y88734D01*
Y86001D02*
Y88734D01*
X262268Y14343D02*
Y14500D01*
X30000Y8992D02*
X30592Y8400D01*
X259541Y81500D02*
X262965D01*
X29582Y9409D02*
X30000Y8992D01*
X262965Y81500D02*
X263984D01*
X57600Y44401D02*
X88626D01*
X47000Y55000D02*
X57600Y44401D01*
X19896Y34606D02*
X24764D01*
X30592Y8400D02*
X30700D01*
X24764Y9409D02*
X29582D01*
X73801Y49682D02*
X73864Y49619D01*
X76798Y47976D02*
X78424D01*
X73801Y49682D02*
Y49800D01*
X73864Y49619D02*
X75156D01*
X76798Y47976D01*
X78424D02*
X78500Y47900D01*
X124209Y34000D02*
X124350Y33858D01*
X118000Y34000D02*
X124209D01*
X88626Y44401D02*
X97000Y52775D01*
Y57400D01*
X38400Y32700D02*
Y35700D01*
X37157Y31457D02*
X38400Y32700D01*
X37500Y40500D02*
X38400Y39600D01*
Y35700D02*
Y39600D01*
X37500Y40500D02*
Y45000D01*
X255500Y85500D02*
X259521Y81479D01*
X254944Y85560D02*
X255005Y85500D01*
X254944Y85560D02*
Y85718D01*
X255005Y85500D02*
X255500D01*
X21116Y31416D02*
X24724D01*
X18500Y28800D02*
X21116Y31416D01*
X18500Y15018D02*
Y28800D01*
X20959Y12559D02*
X24764D01*
X18500Y15018D02*
X20959Y12559D01*
X24724Y31416D02*
X24764Y31457D01*
X31000Y66500D02*
X32000D01*
X26028Y65213D02*
X27495D01*
X24764Y65394D02*
X25846D01*
X28957Y68543D02*
X31000Y66500D01*
X25846Y65394D02*
X26028Y65213D01*
X19794Y87441D02*
X24764D01*
X19133Y90554D02*
X24929D01*
X19096Y90517D02*
X19133Y90554D01*
X24700Y87300D02*
Y87377D01*
X24764Y87441D01*
X24892Y90591D02*
X24929Y90554D01*
X27495Y65213D02*
X29000Y63708D01*
Y61000D02*
Y63708D01*
X17651Y85299D02*
X19794Y87441D01*
X17651Y71014D02*
X20122Y68543D01*
X28957D01*
X17651Y71014D02*
Y85299D01*
X58550Y28950D02*
X65647D01*
X65697Y29000D01*
X58500Y20008D02*
X58598Y20106D01*
X58500Y15500D02*
Y20008D01*
X52500Y15500D02*
X58500D01*
X52500D02*
Y20268D01*
X90303Y31555D02*
X92748Y34000D01*
X90303Y29000D02*
Y31555D01*
X92748Y34000D02*
X98000D01*
X144449Y50400D02*
X144475Y50425D01*
Y54975D01*
X144500Y55000D01*
X160600Y40200D02*
X160677Y40124D01*
X163302D02*
X166550Y36876D01*
X160677Y40124D02*
X163302D01*
X171124Y16563D02*
Y18523D01*
X169928Y15368D02*
X171124Y16563D01*
Y18523D02*
X171200Y18600D01*
X166300Y15368D02*
X169928D01*
X176000Y13900D02*
Y17099D01*
X173683Y11583D02*
X176000Y13900D01*
Y28434D02*
X179666D01*
X181400Y26700D01*
Y21708D02*
Y26700D01*
X178699Y83701D02*
X181200Y81200D01*
X176000Y83701D02*
X178699D01*
X181200Y63300D02*
Y81200D01*
X176000Y64500D02*
Y72366D01*
X150429Y33829D02*
X155621D01*
X150400Y33800D02*
X150429Y33829D01*
X155621D02*
X155650Y33858D01*
X166550Y28451D02*
Y36876D01*
X43000Y50000D02*
X55100Y37900D01*
X58566D02*
X65542D01*
X55100D02*
X58566D01*
X37500Y50000D02*
X43000D01*
X37500Y55000D02*
X47000D01*
X32000Y66500D02*
X37623D01*
X38794Y62950D02*
Y65328D01*
X37623Y66500D02*
X38794Y65328D01*
X35954Y62950D02*
X38474D01*
X38794Y60294D02*
Y62950D01*
X37500Y59000D02*
X38794Y60294D01*
X37500Y55000D02*
Y59000D01*
X38794Y62950D02*
X42450D01*
X42500Y63000D01*
X58566Y29175D02*
Y34435D01*
X58400Y28900D02*
Y29008D01*
X58566Y29175D01*
X259521Y81479D02*
X259541Y81500D01*
X262965Y77524D02*
Y80914D01*
X259541Y77559D02*
Y81459D01*
X165200Y64600D02*
X165268Y64668D01*
X58500Y29000D02*
X58550Y28950D01*
X42319Y24362D02*
X44254D01*
X65542Y37900D02*
X65697Y38055D01*
X92400Y62000D02*
X97000Y57400D01*
X88638Y50266D02*
Y51937D01*
X86177Y48476D02*
X86848D01*
X88638Y51937D02*
X88701Y52000D01*
X86848Y48476D02*
X88638Y50266D01*
X86100Y48400D02*
X86177Y48476D01*
X65924Y54076D02*
Y55702D01*
X63600Y57868D02*
X63757D01*
X65924Y55702D01*
Y54076D02*
X66000Y54000D01*
X264992Y82508D02*
X267000Y80500D01*
Y77622D02*
X267063Y77559D01*
X267000Y77622D02*
Y80500D01*
X267024Y70118D02*
X267060Y70082D01*
X267024Y73465D02*
X267060Y73428D01*
X267024Y66772D02*
X267060Y66735D01*
X263984Y81500D02*
X264992Y82508D01*
X263039Y73465D02*
X267024D01*
X262965Y73539D02*
Y77524D01*
Y73539D02*
X263039Y73465D01*
Y70118D02*
X267024D01*
X263039Y66772D02*
X267024D01*
X263000Y70157D02*
X263039Y70118D01*
X263000Y66811D02*
X263039Y66772D01*
X267024Y60079D02*
X267060Y60043D01*
X267024Y63425D02*
X267060Y63389D01*
X267024Y56732D02*
X267060Y56696D01*
X267024Y50039D02*
X267060Y50003D01*
X267024Y53386D02*
X267060Y53350D01*
X263039Y53386D02*
X267024D01*
X263039Y50039D02*
X267024D01*
X263039Y63425D02*
X267024D01*
X263039Y60079D02*
X267024D01*
X263000Y63465D02*
X263039Y63425D01*
X263000Y60118D02*
X263039Y60079D01*
Y56732D02*
X267024D01*
X263000Y53425D02*
X263039Y53386D01*
X263000Y56772D02*
X263039Y56732D01*
X263000Y50079D02*
X263039Y50039D01*
X262929Y77559D02*
X262965Y77524D01*
X155650Y83858D02*
X155758D01*
X198900Y73100D02*
X203359Y77559D01*
X211945D01*
X155758Y83858D02*
X155800Y83900D01*
X246000Y56496D02*
X251004D01*
X239504D02*
Y61500D01*
X228000Y56500D02*
X228004Y56496D01*
X233008D01*
X246000Y50000D02*
X251004D01*
X165268Y64668D02*
X165300Y64700D01*
X165200Y64668D02*
X165268D01*
X165200Y59200D02*
Y64600D01*
X267024Y40000D02*
X267060Y39964D01*
X267024Y43347D02*
X267060Y43310D01*
X267024Y46693D02*
X267060Y46657D01*
X263039Y40000D02*
X267024D01*
Y33307D02*
X267060Y33271D01*
X267024Y36654D02*
X267060Y36617D01*
X263039Y36654D02*
X267024D01*
X263039Y33307D02*
X267024D01*
X263039Y46693D02*
X267024D01*
X263039Y43347D02*
X267024D01*
X263000Y46732D02*
X263039Y46693D01*
X263000Y43386D02*
X263039Y43347D01*
X263000Y36693D02*
X263039Y36654D01*
X263000Y40039D02*
X263039Y40000D01*
X263000Y33347D02*
X263039Y33307D01*
X267024Y29961D02*
X267060Y29924D01*
X263039Y29961D02*
X267024D01*
X263039Y26614D02*
X267024D01*
X263000Y30000D02*
X263039Y29961D01*
X262008Y14083D02*
X262268Y14343D01*
X261850Y14083D02*
X262008D01*
X246000Y43504D02*
X251004D01*
X239504Y38500D02*
Y43504D01*
X228004Y50000D02*
X233008D01*
X228004Y43504D02*
X233008D01*
X212000Y18500D02*
Y22386D01*
X124350Y83858D02*
X155650D01*
X124300Y83808D02*
X124350Y83858D01*
X124300Y78308D02*
Y83808D01*
X122600Y76608D02*
X124300Y78308D01*
X67000Y88500D02*
X69828D01*
X88701Y56982D02*
Y57000D01*
X88764Y56919D02*
X92428D01*
X88701Y56982D02*
X88764Y56919D01*
X92428D02*
X93723Y55624D01*
Y54176D02*
X93800Y54100D01*
X93723Y54176D02*
Y55624D01*
X58450Y23782D02*
Y28850D01*
X58400Y28900D02*
X58450Y28850D01*
Y23782D02*
X58500Y23732D01*
X55076Y28923D02*
X58376D01*
X58400Y28900D01*
X53600Y29000D02*
X55000D01*
X51000D02*
X53600D01*
X55000D02*
X55076Y28923D01*
X52500Y23732D02*
Y27900D01*
X53600Y29000D01*
X45892Y26000D02*
X46000D01*
X44254Y24362D02*
X45892Y26000D01*
X42563Y17638D02*
X44234D01*
X42500Y17701D02*
X42563Y17638D01*
X45924Y15576D02*
Y15948D01*
Y15576D02*
X46000Y15500D01*
X44234Y17638D02*
X45924Y15948D01*
X88701Y62000D02*
X92400D01*
X58598Y20106D02*
X65535D01*
X65697Y19945D01*
D63*
X54732Y58778D02*
Y68500D01*
Y58778D02*
X55611Y57899D01*
X58100D01*
X89976Y80541D02*
X90094D01*
X92463Y78172D01*
X89726Y80791D02*
Y80909D01*
X93828Y78172D02*
X94000Y78000D01*
X89726Y80791D02*
X89976Y80541D01*
X92463Y78172D02*
X93828D01*
X30000Y41000D02*
X33161Y37839D01*
X29500Y41500D02*
X30000Y41000D01*
X33161Y36230D02*
Y37839D01*
X265832Y5832D02*
Y14500D01*
X265000Y5000D02*
X265832Y5832D01*
X250000Y89500D02*
X250172Y89672D01*
Y90172D01*
X255000Y95000D01*
X250000Y87355D02*
X251370Y85986D01*
X245732Y86000D02*
Y86158D01*
X247050Y87475D02*
Y88607D01*
X247500Y89056D02*
Y89300D01*
X245732Y86158D02*
X247050Y87475D01*
Y88607D02*
X247500Y89056D01*
X70311Y61357D02*
X70568Y61100D01*
X69032Y64797D02*
Y65900D01*
X70311Y61357D02*
Y63517D01*
X69032Y64797D02*
X70311Y63517D01*
X256199Y77596D02*
Y79701D01*
Y77596D02*
X256236Y77559D01*
X38400Y35700D02*
X42268D01*
X35900D02*
X38400D01*
X250000Y87355D02*
Y89500D01*
X45900Y67000D02*
X45932Y66968D01*
Y63032D02*
Y66968D01*
Y63032D02*
X45965Y63000D01*
X266932Y22309D02*
X267063Y22441D01*
X266800Y18400D02*
X266932Y18531D01*
Y22309D01*
X46172Y59172D02*
X48172D01*
X46000Y59000D02*
X46172Y59172D01*
X48172D02*
X51268Y62268D01*
Y68500D01*
X70568Y55332D02*
Y61257D01*
X54732Y68651D02*
X56944D01*
X54732Y68500D02*
Y68651D01*
Y84000D02*
Y94732D01*
X55000Y95000D01*
X261850Y13925D02*
Y14083D01*
X260000Y12075D02*
X261850Y13925D01*
X256239Y22444D02*
Y28080D01*
X252893Y22444D02*
Y28080D01*
X260000Y12000D02*
Y12075D01*
X69828Y88500D02*
X71000Y87328D01*
X50268Y84000D02*
X51268D01*
X47543Y86400D02*
X49837Y84106D01*
X50161D02*
X50268Y84000D01*
X49837Y84106D02*
X50161D01*
X47300Y86400D02*
X47543D01*
X37612Y25280D02*
X37892Y25000D01*
X34000Y25280D02*
X37612D01*
X37892Y25000D02*
X38000D01*
X34896Y16220D02*
X37721D01*
X38000Y16500D01*
X34000Y16220D02*
X34896D01*
X34896Y16220D01*
X70483Y49883D02*
Y55216D01*
X65501Y49800D02*
X70399D01*
X56944Y68651D02*
X58700Y70407D01*
D64*
X75403Y12486D02*
Y15548D01*
X72311Y11311D02*
X74228D01*
X71730Y12714D02*
X73647D01*
X74000Y13067D02*
Y15448D01*
X74228Y11311D02*
X75403Y12486D01*
X73647Y12714D02*
X74000Y13067D01*
X69548Y10532D02*
X71730Y12714D01*
X65000Y5000D02*
X69548Y9548D01*
Y10532D01*
X70951Y9049D02*
Y9951D01*
X72311Y11311D01*
X70951Y9049D02*
X75000Y5000D01*
X76500Y16645D02*
Y16800D01*
X73100Y16348D02*
Y16700D01*
Y16348D02*
X74000Y15448D01*
X75403Y15548D02*
X76500Y16645D01*
X28389Y19106D02*
Y22273D01*
X24764Y22992D02*
X27670D01*
X24764Y24961D02*
X28039D01*
X24522Y21266D02*
X24764Y21024D01*
X24522Y24719D02*
X24764Y24961D01*
X27670Y22992D02*
X28389Y22273D01*
X22078Y21266D02*
X24522D01*
X21398Y21945D02*
Y24039D01*
X22078Y24719D02*
X22689D01*
X21398Y24039D02*
X22078Y24719D01*
X22692Y24716D02*
X23908D01*
X22689Y24719D02*
X22692Y24716D01*
X21398Y21945D02*
X22078Y21266D01*
X23908Y24716D02*
X23911Y24719D01*
X24522D01*
X60568Y75032D02*
X63459D01*
X60533Y76933D02*
X63391D01*
X63459Y77000D01*
X28478Y77617D02*
Y80847D01*
X24789Y75039D02*
X24814Y75014D01*
X21309Y75620D02*
X21914Y75014D01*
X24764Y77008D02*
X24810Y77054D01*
X21914Y75014D02*
X24738D01*
X21309Y75620D02*
Y78309D01*
X24687Y78900D02*
X24764Y78976D01*
X24738Y75014D02*
X24764Y75039D01*
X21900Y78900D02*
X24687D01*
X21309Y78309D02*
X21900Y78900D01*
X24764Y80945D02*
X24862Y80847D01*
X24810Y77054D02*
X27915D01*
X24862Y80847D02*
X28478D01*
X27915Y77054D02*
X28478Y77617D01*
X189201Y44500D02*
X193799D01*
X189201Y52000D02*
X193799D01*
X34050Y80907D02*
X34542D01*
X34930Y80028D02*
Y80520D01*
X35387Y78122D02*
Y79570D01*
X34542Y80907D02*
X34930Y80520D01*
Y80028D02*
X35387Y79570D01*
Y78122D02*
X35548Y77961D01*
X33304Y75376D02*
X33667Y75014D01*
X32635Y76477D02*
X33304Y75808D01*
X32348Y77961D02*
X32635Y77675D01*
X33667Y75014D02*
X34098D01*
X33304Y75376D02*
Y75808D01*
X32635Y76477D02*
Y77675D01*
X46500Y74400D02*
X46986D01*
X47686Y75100D01*
X49817D01*
X51299Y73500D02*
Y73618D01*
X49817Y75100D02*
X51299Y73618D01*
X56499Y76701D02*
X60302D01*
X60533Y76933D01*
X54701Y78382D02*
Y78500D01*
Y78382D02*
X55462Y77620D01*
X55580D02*
X56499Y76701D01*
X55462Y77620D02*
X55580D01*
X56432Y75231D02*
X60369D01*
X55580Y74380D02*
X56432Y75231D01*
X60369D02*
X60568Y75032D01*
X54701Y73500D02*
Y73618D01*
X55462Y74380D01*
X55580D01*
X208000Y47597D02*
X208944Y46654D01*
X211945D01*
X193799Y44500D02*
Y46308D01*
X195088Y47597D02*
X208000D01*
X193799Y46308D02*
X195088Y47597D01*
X195000Y49000D02*
X208000D01*
X209000Y50000D01*
X193799Y50201D02*
X195000Y49000D01*
X209000Y50000D02*
X211945D01*
X193799Y50201D02*
Y52000D01*
X197201Y44599D02*
X201500D01*
X197200Y44600D02*
X197201Y44599D01*
Y44500D02*
Y44599D01*
Y52000D02*
X201500D01*
X177452Y47598D02*
X185093D01*
X185446Y47245D01*
X176553Y46700D02*
X177452Y47598D01*
X185446Y44853D02*
X185799Y44500D01*
X185446Y44853D02*
Y47245D01*
X176200Y46700D02*
X176553D01*
X46481Y20097D02*
X47375Y19203D01*
X35810Y20097D02*
X46481D01*
X47375Y19203D02*
X47733D01*
X34492Y18779D02*
X35810Y20097D01*
X33724Y19055D02*
X34000Y18779D01*
X24764Y19055D02*
X33724D01*
X185446Y51647D02*
X185799Y52000D01*
X185446Y49355D02*
Y51647D01*
X185093Y49002D02*
X185446Y49355D01*
X177452Y49002D02*
X185093D01*
X176200Y49900D02*
X176553D01*
X177452Y49002D01*
X47248Y22400D02*
X47600D01*
X46348Y21500D02*
X47248Y22400D01*
X35684Y21500D02*
X46348D01*
X34880Y22304D02*
X35684Y21500D01*
X28039Y24961D02*
X30279Y22720D01*
X34000D01*
X34492D01*
X34880Y22333D01*
Y22304D02*
Y22333D01*
X51299Y78382D02*
Y78500D01*
X46500Y77600D02*
X46986D01*
X47686Y76900D02*
X49817D01*
X46986Y77600D02*
X47686Y76900D01*
X49817D02*
X51299Y78382D01*
X24814Y75014D02*
X34098D01*
X33990Y80847D02*
X34050Y80907D01*
X28478Y80847D02*
X33990D01*
D65*
X69032Y65900D02*
Y69459D01*
X82837Y80937D02*
X83500Y81600D01*
X78541Y80937D02*
X82837D01*
X83500Y81600D02*
X85703D01*
X86261Y80972D02*
Y81042D01*
X85703Y81600D02*
X86261Y81042D01*
X81972Y86472D02*
X83500D01*
X79400Y83900D02*
X81972Y86472D01*
X83500D02*
X86230D01*
X61356Y73063D02*
X63459D01*
X71000Y84541D02*
Y87328D01*
X86246Y80988D02*
Y86457D01*
X86230Y86472D02*
X86246Y86457D01*
X58700Y70407D02*
X61356Y73063D01*
D66*
X251885Y84015D02*
X256199Y79701D01*
X251885Y84015D02*
Y85313D01*
X45738Y35706D02*
X49894D01*
X251280Y85917D02*
X251885Y85313D01*
X30500Y83500D02*
X30517Y83483D01*
X93758Y82378D02*
Y85242D01*
X92500Y86500D02*
X93758Y85242D01*
Y82378D02*
X93893Y82242D01*
X89722Y86500D02*
X92500D01*
X89694Y86472D02*
X89722Y86500D01*
X37500Y80500D02*
Y82433D01*
X36466Y83466D02*
X37500Y82433D01*
X34050Y83466D02*
X36466D01*
X30517Y83483D02*
X33921D01*
X32864Y63080D02*
X32953Y62990D01*
Y58453D02*
Y62990D01*
X30000Y55500D02*
X32953Y58453D01*
X44938Y82762D02*
X45475Y83300D01*
X45800D01*
X42800Y82299D02*
X43263Y82762D01*
X44938D01*
X41800Y73601D02*
X42263Y73138D01*
X43862D01*
X37785Y72415D02*
X37800Y72400D01*
X34184Y72430D02*
X34199Y72415D01*
X37785D01*
X43862Y73138D02*
X46500Y70500D01*
D67*
X71000Y68020D02*
Y69459D01*
Y68020D02*
X72232Y66788D01*
X134416Y50400D02*
X141182D01*
X176000Y20501D02*
Y25166D01*
Y75634D02*
Y80299D01*
X72232Y65768D02*
Y66788D01*
Y65768D02*
X72500Y65500D01*
D68*
X265000Y95000D02*
D03*
Y5000D02*
D03*
D69*
X255000Y95000D02*
D03*
X245000D02*
D03*
X235000D02*
D03*
X225000D02*
D03*
X215000D02*
D03*
X205000D02*
D03*
X195000D02*
D03*
X185000D02*
D03*
X175000D02*
D03*
X165000D02*
D03*
X155000D02*
D03*
X145000D02*
D03*
X135000D02*
D03*
X125000D02*
D03*
X115000D02*
D03*
X105000D02*
D03*
X95000D02*
D03*
X85000D02*
D03*
X75000D02*
D03*
X65000D02*
D03*
X55000D02*
D03*
X45000D02*
D03*
X35000D02*
D03*
X255000Y5000D02*
D03*
X245000D02*
D03*
X235000D02*
D03*
X225000D02*
D03*
X215000D02*
D03*
X205000D02*
D03*
X195000D02*
D03*
X185000D02*
D03*
X175000D02*
D03*
X165000D02*
D03*
X155000D02*
D03*
X145000D02*
D03*
X135000D02*
D03*
X125000D02*
D03*
X115000D02*
D03*
X105000D02*
D03*
X95000D02*
D03*
X85000D02*
D03*
X75000D02*
D03*
X65000D02*
D03*
X55000D02*
D03*
X45000D02*
D03*
X35000D02*
D03*
D70*
X37500Y55000D02*
D03*
D71*
Y50000D02*
D03*
Y45000D02*
D03*
D72*
X58000Y50000D02*
D03*
X131000Y54600D02*
D03*
X193589Y35500D02*
D03*
X200400Y29800D02*
D03*
X98000Y41000D02*
D03*
X52500Y15500D02*
D03*
X238500Y86000D02*
D03*
X247500Y89300D02*
D03*
X76500Y16800D02*
D03*
X73100Y16700D02*
D03*
X19896Y34606D02*
D03*
X63000Y24000D02*
D03*
X118000Y34000D02*
D03*
Y41000D02*
D03*
Y47000D02*
D03*
X250000Y89500D02*
D03*
X45900Y67000D02*
D03*
X79400Y83900D02*
D03*
X29500Y41500D02*
D03*
X69000Y75000D02*
D03*
X71000Y77000D02*
D03*
X73000Y75000D02*
D03*
Y79000D02*
D03*
X69000D02*
D03*
X29000Y61000D02*
D03*
X30500Y83500D02*
D03*
X19259Y90517D02*
D03*
X203100Y33200D02*
D03*
X58500Y15500D02*
D03*
X106000Y34000D02*
D03*
X110000Y47000D02*
D03*
X114000D02*
D03*
X98000D02*
D03*
X106000D02*
D03*
X102000D02*
D03*
X106000Y41000D02*
D03*
X98000Y34000D02*
D03*
X102000D02*
D03*
X110000D02*
D03*
X114000D02*
D03*
X102000Y41000D02*
D03*
X110000D02*
D03*
X114000D02*
D03*
X94000Y78000D02*
D03*
X78500Y47900D02*
D03*
X266800Y18400D02*
D03*
X144500Y55000D02*
D03*
X160600Y40200D02*
D03*
X171200Y18600D02*
D03*
X181400Y21600D02*
D03*
X150400Y33800D02*
D03*
X49894Y35706D02*
D03*
X160993Y35578D02*
D03*
X72500Y65500D02*
D03*
X93893Y82242D02*
D03*
X37500Y80500D02*
D03*
X46000Y59000D02*
D03*
X30000Y55500D02*
D03*
X207500Y53000D02*
D03*
X205500Y36000D02*
D03*
X32348Y77961D02*
D03*
X35548D02*
D03*
X181200Y63300D02*
D03*
X172900Y60200D02*
D03*
X170200Y64500D02*
D03*
X86100Y48400D02*
D03*
X54732Y64581D02*
D03*
X46500Y74400D02*
D03*
X77900Y87500D02*
D03*
X89000Y70000D02*
D03*
X66000Y54000D02*
D03*
X242847Y31294D02*
D03*
X246197Y28077D02*
D03*
X188500Y33900D02*
D03*
X217700Y36900D02*
D03*
X249540Y31294D02*
D03*
X239504Y28077D02*
D03*
X236154Y31294D02*
D03*
X232811Y28077D02*
D03*
X229461Y31294D02*
D03*
X226118Y28077D02*
D03*
X222768Y31294D02*
D03*
X219425Y28077D02*
D03*
X216000Y31000D02*
D03*
X206500Y56700D02*
D03*
X205600Y60200D02*
D03*
X206900Y63400D02*
D03*
X194600Y66700D02*
D03*
X198200Y67600D02*
D03*
X201439Y70632D02*
D03*
X216200Y70100D02*
D03*
X219500Y66500D02*
D03*
X222772Y71917D02*
D03*
X226193Y66500D02*
D03*
X229465Y71917D02*
D03*
X232886Y66500D02*
D03*
X236157Y71917D02*
D03*
X239579Y66500D02*
D03*
X242850Y71917D02*
D03*
X246272Y66500D02*
D03*
X249543Y71917D02*
D03*
X263000Y66811D02*
D03*
Y70157D02*
D03*
Y60118D02*
D03*
Y63465D02*
D03*
Y56772D02*
D03*
Y53425D02*
D03*
X259500Y81500D02*
D03*
X198900Y73100D02*
D03*
X251008Y56492D02*
D03*
X239508Y61504D02*
D03*
X242700Y53200D02*
D03*
X236300D02*
D03*
X228000Y56500D02*
D03*
X176000Y64500D02*
D03*
X165200Y59200D02*
D03*
X263000Y46732D02*
D03*
Y43386D02*
D03*
Y50079D02*
D03*
Y36693D02*
D03*
Y40039D02*
D03*
Y33347D02*
D03*
Y26654D02*
D03*
Y30000D02*
D03*
X251008Y49996D02*
D03*
X242800Y46700D02*
D03*
X236300D02*
D03*
X251008Y43500D02*
D03*
X239500Y38496D02*
D03*
X228000Y43508D02*
D03*
Y50004D02*
D03*
X256239Y28080D02*
D03*
X252893D02*
D03*
X260000Y12000D02*
D03*
X212000Y18500D02*
D03*
X122600Y76608D02*
D03*
X67000Y88500D02*
D03*
X77100Y58000D02*
D03*
X47300Y86400D02*
D03*
X45800Y83300D02*
D03*
X46500Y70500D02*
D03*
X37800Y72400D02*
D03*
X93800Y54100D02*
D03*
X77200Y52100D02*
D03*
X58400Y28900D02*
D03*
X55000Y29000D02*
D03*
X51000D02*
D03*
X46000Y26000D02*
D03*
X38000Y25000D02*
D03*
X46000Y15500D02*
D03*
X38000Y16500D02*
D03*
X30700Y8400D02*
D03*
X201500Y44599D02*
D03*
Y52000D02*
D03*
X176200Y46700D02*
D03*
X47733Y19203D02*
D03*
X176200Y49900D02*
D03*
X47600Y22400D02*
D03*
X46500Y77600D02*
D03*
X92400Y62000D02*
D03*
M02*
