G04*
G04 #@! TF.GenerationSoftware,Altium Limited,Altium Designer,24.9.1 (31)*
G04*
G04 Layer_Color=32896*
%FSLAX25Y25*%
%MOIN*%
G70*
G04*
G04 #@! TF.SameCoordinates,0C4B9269-15E2-45E3-B218-B4FFBFC8B41E*
G04*
G04*
G04 #@! TF.FilePolarity,Positive*
G04*
G01*
G75*
%ADD13C,0.01000*%
%ADD14C,0.00600*%
G36*
X138663Y53123D02*
X138723Y53119D01*
X138782Y53112D01*
X138834Y53104D01*
X138878Y53093D01*
X138911Y53086D01*
X138934Y53082D01*
X138937Y53078D01*
X138941D01*
X139004Y53060D01*
X139059Y53041D01*
X139107Y53027D01*
X139144Y53012D01*
X139178Y52997D01*
X139200Y52986D01*
X139215Y52982D01*
X139218Y52978D01*
Y52638D01*
X139204D01*
X139170Y52660D01*
X139137Y52679D01*
X139122Y52686D01*
X139111Y52694D01*
X139104Y52701D01*
X139100D01*
X139052Y52731D01*
X139011Y52753D01*
X138996Y52760D01*
X138982Y52768D01*
X138974Y52771D01*
X138970D01*
X138908Y52794D01*
X138882Y52805D01*
X138856Y52812D01*
X138834Y52819D01*
X138815Y52823D01*
X138804Y52827D01*
X138800D01*
X138734Y52842D01*
X138708Y52845D01*
X138678D01*
X138660Y52849D01*
X138626D01*
X138564Y52845D01*
X138534Y52842D01*
X138512Y52838D01*
X138493Y52830D01*
X138475Y52827D01*
X138467Y52823D01*
X138464D01*
X138412Y52801D01*
X138367Y52775D01*
X138353Y52768D01*
X138341Y52757D01*
X138334Y52753D01*
X138330Y52749D01*
X138293Y52708D01*
X138268Y52668D01*
X138260Y52649D01*
X138253Y52638D01*
X138245Y52627D01*
Y52623D01*
X138227Y52564D01*
X138216Y52505D01*
X138212Y52483D01*
Y52464D01*
Y52449D01*
Y52446D01*
X138216Y52375D01*
X138227Y52305D01*
X138245Y52242D01*
X138264Y52187D01*
X138282Y52139D01*
X138301Y52102D01*
X138304Y52087D01*
X138312Y52076D01*
X138316Y52072D01*
Y52068D01*
X138338Y52031D01*
X138360Y51994D01*
X138416Y51917D01*
X138478Y51835D01*
X138541Y51758D01*
X138597Y51691D01*
X138623Y51661D01*
X138645Y51635D01*
X138663Y51613D01*
X138678Y51598D01*
X138686Y51587D01*
X138689Y51584D01*
X138741Y51528D01*
X138789Y51476D01*
X138837Y51428D01*
X138882Y51384D01*
X138919Y51347D01*
X138945Y51321D01*
X138963Y51302D01*
X138970Y51295D01*
X139078Y51191D01*
X139126Y51140D01*
X139174Y51095D01*
X139211Y51058D01*
X139244Y51029D01*
X139263Y51010D01*
X139267Y51006D01*
X139270Y51003D01*
Y50666D01*
X137783D01*
Y50943D01*
X138970D01*
X138926Y50984D01*
X138878Y51029D01*
X138826Y51077D01*
X138778Y51121D01*
X138737Y51158D01*
X138700Y51191D01*
X138678Y51214D01*
X138674Y51217D01*
X138671Y51221D01*
X138601Y51288D01*
X138538Y51350D01*
X138478Y51410D01*
X138430Y51461D01*
X138390Y51506D01*
X138356Y51535D01*
X138338Y51558D01*
X138330Y51565D01*
X138264Y51639D01*
X138234Y51672D01*
X138208Y51706D01*
X138186Y51732D01*
X138168Y51750D01*
X138156Y51765D01*
X138153Y51769D01*
X138094Y51846D01*
X138071Y51880D01*
X138049Y51913D01*
X138031Y51939D01*
X138020Y51961D01*
X138012Y51976D01*
X138008Y51980D01*
X137968Y52057D01*
X137953Y52094D01*
X137938Y52127D01*
X137931Y52153D01*
X137923Y52179D01*
X137916Y52194D01*
Y52198D01*
X137898Y52290D01*
X137890Y52335D01*
X137886Y52375D01*
X137883Y52409D01*
Y52438D01*
Y52453D01*
Y52460D01*
X137886Y52516D01*
X137890Y52568D01*
X137912Y52668D01*
X137942Y52749D01*
X137979Y52819D01*
X137997Y52849D01*
X138016Y52871D01*
X138031Y52893D01*
X138046Y52912D01*
X138057Y52927D01*
X138068Y52938D01*
X138071Y52942D01*
X138075Y52945D01*
X138112Y52978D01*
X138153Y53004D01*
X138194Y53030D01*
X138238Y53049D01*
X138327Y53082D01*
X138412Y53104D01*
X138486Y53115D01*
X138519Y53123D01*
X138549D01*
X138571Y53127D01*
X138604D01*
X138663Y53123D01*
D02*
G37*
G36*
X135045Y53123D02*
X135104Y53119D01*
X135163Y53112D01*
X135215Y53104D01*
X135259Y53093D01*
X135293Y53086D01*
X135315Y53082D01*
X135319Y53078D01*
X135322D01*
X135385Y53060D01*
X135441Y53041D01*
X135489Y53027D01*
X135526Y53012D01*
X135559Y52997D01*
X135581Y52986D01*
X135596Y52982D01*
X135600Y52978D01*
Y52638D01*
X135585D01*
X135552Y52660D01*
X135518Y52679D01*
X135504Y52686D01*
X135493Y52694D01*
X135485Y52701D01*
X135481D01*
X135433Y52731D01*
X135393Y52753D01*
X135378Y52760D01*
X135363Y52768D01*
X135356Y52771D01*
X135352D01*
X135289Y52794D01*
X135263Y52805D01*
X135237Y52812D01*
X135215Y52819D01*
X135196Y52823D01*
X135185Y52827D01*
X135182D01*
X135115Y52842D01*
X135089Y52845D01*
X135060D01*
X135041Y52849D01*
X135008D01*
X134945Y52845D01*
X134915Y52842D01*
X134893Y52838D01*
X134875Y52830D01*
X134856Y52827D01*
X134849Y52823D01*
X134845D01*
X134793Y52801D01*
X134749Y52775D01*
X134734Y52768D01*
X134723Y52757D01*
X134715Y52753D01*
X134712Y52749D01*
X134675Y52708D01*
X134649Y52668D01*
X134642Y52649D01*
X134634Y52638D01*
X134627Y52627D01*
Y52623D01*
X134608Y52564D01*
X134597Y52505D01*
X134593Y52483D01*
Y52464D01*
Y52449D01*
Y52446D01*
X134597Y52375D01*
X134608Y52305D01*
X134627Y52242D01*
X134645Y52187D01*
X134664Y52139D01*
X134682Y52102D01*
X134686Y52087D01*
X134693Y52076D01*
X134697Y52072D01*
Y52068D01*
X134719Y52031D01*
X134741Y51994D01*
X134797Y51917D01*
X134860Y51835D01*
X134923Y51758D01*
X134978Y51691D01*
X135004Y51661D01*
X135026Y51635D01*
X135045Y51613D01*
X135060Y51598D01*
X135067Y51587D01*
X135071Y51584D01*
X135123Y51528D01*
X135171Y51476D01*
X135219Y51428D01*
X135263Y51384D01*
X135300Y51347D01*
X135326Y51321D01*
X135345Y51302D01*
X135352Y51295D01*
X135459Y51191D01*
X135507Y51140D01*
X135555Y51095D01*
X135592Y51058D01*
X135626Y51029D01*
X135644Y51010D01*
X135648Y51006D01*
X135652Y51003D01*
Y50666D01*
X134164D01*
Y50943D01*
X135352D01*
X135308Y50984D01*
X135259Y51029D01*
X135208Y51077D01*
X135160Y51121D01*
X135119Y51158D01*
X135082Y51191D01*
X135060Y51214D01*
X135056Y51217D01*
X135052Y51221D01*
X134982Y51288D01*
X134919Y51350D01*
X134860Y51410D01*
X134812Y51461D01*
X134771Y51506D01*
X134738Y51535D01*
X134719Y51558D01*
X134712Y51565D01*
X134645Y51639D01*
X134616Y51672D01*
X134590Y51706D01*
X134567Y51732D01*
X134549Y51750D01*
X134538Y51765D01*
X134534Y51769D01*
X134475Y51846D01*
X134453Y51880D01*
X134431Y51913D01*
X134412Y51939D01*
X134401Y51961D01*
X134394Y51976D01*
X134390Y51980D01*
X134349Y52057D01*
X134334Y52094D01*
X134320Y52127D01*
X134312Y52153D01*
X134305Y52179D01*
X134297Y52194D01*
Y52198D01*
X134279Y52290D01*
X134272Y52335D01*
X134268Y52375D01*
X134264Y52409D01*
Y52438D01*
Y52453D01*
Y52460D01*
X134268Y52516D01*
X134272Y52568D01*
X134294Y52668D01*
X134323Y52749D01*
X134360Y52819D01*
X134379Y52849D01*
X134397Y52871D01*
X134412Y52893D01*
X134427Y52912D01*
X134438Y52927D01*
X134449Y52938D01*
X134453Y52942D01*
X134457Y52945D01*
X134494Y52978D01*
X134534Y53004D01*
X134575Y53030D01*
X134619Y53049D01*
X134708Y53082D01*
X134793Y53104D01*
X134867Y53115D01*
X134900Y53123D01*
X134930D01*
X134952Y53127D01*
X134986D01*
X135045Y53123D01*
D02*
G37*
G36*
X125277D02*
X125336Y53119D01*
X125395Y53112D01*
X125447Y53104D01*
X125491Y53093D01*
X125525Y53086D01*
X125547Y53082D01*
X125551Y53078D01*
X125554D01*
X125617Y53060D01*
X125673Y53041D01*
X125721Y53027D01*
X125758Y53012D01*
X125791Y52997D01*
X125813Y52986D01*
X125828Y52982D01*
X125832Y52978D01*
Y52638D01*
X125817D01*
X125784Y52660D01*
X125750Y52679D01*
X125736Y52686D01*
X125724Y52694D01*
X125717Y52701D01*
X125713D01*
X125665Y52731D01*
X125625Y52753D01*
X125610Y52760D01*
X125595Y52768D01*
X125588Y52771D01*
X125584D01*
X125521Y52794D01*
X125495Y52805D01*
X125469Y52812D01*
X125447Y52819D01*
X125428Y52823D01*
X125417Y52827D01*
X125414D01*
X125347Y52842D01*
X125321Y52845D01*
X125292D01*
X125273Y52849D01*
X125240D01*
X125177Y52845D01*
X125147Y52842D01*
X125125Y52838D01*
X125107Y52830D01*
X125088Y52827D01*
X125081Y52823D01*
X125077D01*
X125025Y52801D01*
X124981Y52775D01*
X124966Y52768D01*
X124955Y52757D01*
X124948Y52753D01*
X124944Y52749D01*
X124907Y52708D01*
X124881Y52668D01*
X124873Y52649D01*
X124866Y52638D01*
X124859Y52627D01*
Y52623D01*
X124840Y52564D01*
X124829Y52505D01*
X124825Y52483D01*
Y52464D01*
Y52449D01*
Y52446D01*
X124829Y52375D01*
X124840Y52305D01*
X124859Y52242D01*
X124877Y52187D01*
X124896Y52139D01*
X124914Y52102D01*
X124918Y52087D01*
X124925Y52076D01*
X124929Y52072D01*
Y52068D01*
X124951Y52031D01*
X124973Y51994D01*
X125029Y51917D01*
X125092Y51835D01*
X125155Y51758D01*
X125210Y51691D01*
X125236Y51661D01*
X125258Y51635D01*
X125277Y51613D01*
X125292Y51598D01*
X125299Y51587D01*
X125303Y51584D01*
X125355Y51528D01*
X125403Y51476D01*
X125451Y51428D01*
X125495Y51384D01*
X125532Y51347D01*
X125558Y51321D01*
X125576Y51302D01*
X125584Y51295D01*
X125691Y51191D01*
X125739Y51140D01*
X125787Y51095D01*
X125824Y51058D01*
X125858Y51029D01*
X125876Y51010D01*
X125880Y51006D01*
X125884Y51003D01*
Y50666D01*
X124396D01*
Y50943D01*
X125584D01*
X125540Y50984D01*
X125491Y51029D01*
X125440Y51077D01*
X125391Y51121D01*
X125351Y51158D01*
X125314Y51191D01*
X125292Y51214D01*
X125288Y51217D01*
X125284Y51221D01*
X125214Y51288D01*
X125151Y51350D01*
X125092Y51410D01*
X125044Y51461D01*
X125003Y51506D01*
X124970Y51535D01*
X124951Y51558D01*
X124944Y51565D01*
X124877Y51639D01*
X124848Y51672D01*
X124822Y51706D01*
X124800Y51732D01*
X124781Y51750D01*
X124770Y51765D01*
X124766Y51769D01*
X124707Y51846D01*
X124685Y51880D01*
X124663Y51913D01*
X124644Y51939D01*
X124633Y51961D01*
X124626Y51976D01*
X124622Y51980D01*
X124581Y52057D01*
X124566Y52094D01*
X124552Y52127D01*
X124544Y52153D01*
X124537Y52179D01*
X124529Y52194D01*
Y52198D01*
X124511Y52290D01*
X124504Y52335D01*
X124500Y52375D01*
X124496Y52409D01*
Y52438D01*
Y52453D01*
Y52460D01*
X124500Y52516D01*
X124504Y52568D01*
X124526Y52668D01*
X124555Y52749D01*
X124592Y52819D01*
X124611Y52849D01*
X124629Y52871D01*
X124644Y52893D01*
X124659Y52912D01*
X124670Y52927D01*
X124681Y52938D01*
X124685Y52942D01*
X124688Y52945D01*
X124725Y52978D01*
X124766Y53004D01*
X124807Y53030D01*
X124851Y53049D01*
X124940Y53082D01*
X125025Y53104D01*
X125099Y53115D01*
X125133Y53123D01*
X125162D01*
X125184Y53127D01*
X125218D01*
X125277Y53123D01*
D02*
G37*
G36*
X151451Y50666D02*
X151129D01*
Y51846D01*
X150026D01*
Y50666D01*
X149704D01*
Y53075D01*
X150026D01*
Y52131D01*
X151129D01*
Y53075D01*
X151451D01*
Y50666D01*
D02*
G37*
G36*
X132903Y53115D02*
X132991Y53104D01*
X133076Y53086D01*
X133147Y53067D01*
X133202Y53049D01*
X133228Y53041D01*
X133247Y53030D01*
X133261Y53027D01*
X133273Y53019D01*
X133280Y53016D01*
X133284D01*
X133358Y52975D01*
X133424Y52927D01*
X133480Y52879D01*
X133528Y52834D01*
X133569Y52794D01*
X133598Y52760D01*
X133613Y52738D01*
X133620Y52734D01*
Y52731D01*
X133668Y52657D01*
X133709Y52583D01*
X133742Y52509D01*
X133772Y52438D01*
X133794Y52379D01*
X133802Y52353D01*
X133809Y52331D01*
X133813Y52312D01*
X133816Y52298D01*
X133820Y52290D01*
Y52287D01*
X133842Y52190D01*
X133857Y52091D01*
X133868Y51998D01*
X133876Y51909D01*
X133879Y51868D01*
Y51835D01*
Y51802D01*
X133883Y51772D01*
Y51750D01*
Y51735D01*
Y51724D01*
Y51720D01*
X133879Y51606D01*
X133872Y51502D01*
X133861Y51410D01*
X133853Y51369D01*
X133846Y51328D01*
X133842Y51295D01*
X133835Y51265D01*
X133827Y51240D01*
X133824Y51221D01*
X133820Y51202D01*
X133816Y51191D01*
X133813Y51184D01*
Y51180D01*
X133783Y51103D01*
X133754Y51032D01*
X133720Y50973D01*
X133691Y50925D01*
X133661Y50884D01*
X133639Y50855D01*
X133624Y50840D01*
X133620Y50832D01*
X133580Y50792D01*
X133539Y50758D01*
X133498Y50733D01*
X133461Y50707D01*
X133432Y50688D01*
X133406Y50677D01*
X133391Y50670D01*
X133384Y50666D01*
X133332Y50647D01*
X133280Y50636D01*
X133232Y50625D01*
X133184Y50622D01*
X133147Y50618D01*
X133113Y50614D01*
X133088D01*
X133028Y50618D01*
X132973Y50622D01*
X132921Y50633D01*
X132877Y50644D01*
X132843Y50651D01*
X132814Y50662D01*
X132799Y50666D01*
X132791Y50670D01*
X132743Y50696D01*
X132699Y50722D01*
X132658Y50751D01*
X132621Y50777D01*
X132592Y50803D01*
X132570Y50821D01*
X132555Y50836D01*
X132551Y50840D01*
X132514Y50881D01*
X132481Y50925D01*
X132451Y50966D01*
X132429Y51010D01*
X132410Y51043D01*
X132396Y51073D01*
X132388Y51091D01*
X132385Y51099D01*
X132362Y51158D01*
X132348Y51221D01*
X132336Y51276D01*
X132329Y51332D01*
X132325Y51376D01*
X132322Y51413D01*
Y51424D01*
Y51436D01*
Y51439D01*
Y51443D01*
X132325Y51517D01*
X132333Y51587D01*
X132344Y51647D01*
X132355Y51702D01*
X132366Y51743D01*
X132377Y51776D01*
X132385Y51794D01*
X132388Y51802D01*
X132414Y51857D01*
X132444Y51909D01*
X132477Y51950D01*
X132510Y51987D01*
X132540Y52017D01*
X132562Y52039D01*
X132577Y52053D01*
X132584Y52057D01*
X132625Y52087D01*
X132666Y52113D01*
X132706Y52131D01*
X132740Y52146D01*
X132766Y52157D01*
X132788Y52165D01*
X132803Y52172D01*
X132806D01*
X132888Y52190D01*
X132928Y52194D01*
X132965Y52198D01*
X132999Y52201D01*
X133102D01*
X133154Y52194D01*
X133198Y52187D01*
X133239Y52179D01*
X133269Y52172D01*
X133295Y52165D01*
X133309Y52161D01*
X133317Y52157D01*
X133402Y52120D01*
X133443Y52098D01*
X133476Y52079D01*
X133506Y52061D01*
X133531Y52046D01*
X133546Y52035D01*
X133550Y52031D01*
X133543Y52105D01*
X133531Y52172D01*
X133517Y52235D01*
X133502Y52294D01*
X133483Y52350D01*
X133465Y52398D01*
X133446Y52442D01*
X133428Y52483D01*
X133409Y52520D01*
X133391Y52549D01*
X133376Y52575D01*
X133361Y52597D01*
X133350Y52612D01*
X133339Y52623D01*
X133335Y52631D01*
X133332Y52634D01*
X133295Y52671D01*
X133258Y52705D01*
X133217Y52731D01*
X133176Y52753D01*
X133099Y52790D01*
X133021Y52816D01*
X132951Y52830D01*
X132921Y52834D01*
X132895Y52838D01*
X132877Y52842D01*
X132847D01*
X132780Y52838D01*
X132751Y52834D01*
X132725Y52830D01*
X132703Y52827D01*
X132688Y52823D01*
X132677Y52819D01*
X132673D01*
X132643Y52812D01*
X132618Y52805D01*
X132595Y52797D01*
X132577Y52794D01*
X132562Y52786D01*
X132551Y52782D01*
X132547Y52779D01*
X132529D01*
Y53082D01*
X132573Y53093D01*
X132614Y53101D01*
X132629Y53104D01*
X132643Y53108D01*
X132655D01*
X132706Y53115D01*
X132755Y53119D01*
X132803D01*
X132903Y53115D01*
D02*
G37*
G36*
X156827Y51695D02*
Y50666D01*
X156505D01*
Y51732D01*
X155691Y53075D01*
X156035D01*
X156664Y52013D01*
X157285Y53075D01*
X157641D01*
X156827Y51695D01*
D02*
G37*
G36*
X162806Y53115D02*
X162887Y53104D01*
X162965Y53093D01*
X163028Y53078D01*
X163083Y53060D01*
X163106Y53053D01*
X163124Y53049D01*
X163139Y53041D01*
X163150Y53038D01*
X163154Y53034D01*
X163157D01*
X163228Y53001D01*
X163294Y52960D01*
X163350Y52919D01*
X163402Y52879D01*
X163442Y52842D01*
X163472Y52812D01*
X163490Y52794D01*
X163498Y52790D01*
Y52786D01*
X163550Y52723D01*
X163594Y52653D01*
X163635Y52590D01*
X163664Y52527D01*
X163690Y52475D01*
X163709Y52431D01*
X163716Y52416D01*
X163720Y52405D01*
X163724Y52398D01*
Y52394D01*
X163749Y52305D01*
X163768Y52216D01*
X163779Y52127D01*
X163786Y52046D01*
X163790Y52005D01*
X163794Y51972D01*
Y51942D01*
X163797Y51917D01*
Y51894D01*
Y51880D01*
Y51868D01*
Y51865D01*
X163794Y51754D01*
X163786Y51654D01*
X163772Y51561D01*
X163757Y51480D01*
X163753Y51447D01*
X163746Y51417D01*
X163738Y51388D01*
X163731Y51365D01*
X163727Y51347D01*
X163724Y51336D01*
X163720Y51328D01*
Y51325D01*
X163687Y51240D01*
X163653Y51165D01*
X163616Y51099D01*
X163579Y51043D01*
X163546Y50999D01*
X163520Y50966D01*
X163505Y50943D01*
X163498Y50936D01*
X163442Y50881D01*
X163383Y50832D01*
X163328Y50792D01*
X163272Y50758D01*
X163228Y50733D01*
X163191Y50714D01*
X163176Y50707D01*
X163165Y50703D01*
X163161Y50699D01*
X163157D01*
X163080Y50673D01*
X163006Y50655D01*
X162932Y50640D01*
X162865Y50633D01*
X162806Y50625D01*
X162780D01*
X162761Y50622D01*
X162669D01*
X162625Y50625D01*
X162584Y50629D01*
X162551Y50633D01*
X162525D01*
X162503Y50636D01*
X162491Y50640D01*
X162488D01*
X162417Y50655D01*
X162384Y50662D01*
X162355Y50670D01*
X162329Y50677D01*
X162310Y50684D01*
X162295Y50688D01*
X162292D01*
X162255Y50699D01*
X162221Y50714D01*
X162195Y50725D01*
X162170Y50733D01*
X162147Y50744D01*
X162133Y50747D01*
X162125Y50755D01*
X162121D01*
X162070Y50781D01*
X162018Y50803D01*
X161999Y50810D01*
X161985Y50818D01*
X161973Y50825D01*
X161970D01*
Y51210D01*
X161996D01*
X162029Y51177D01*
X162062Y51147D01*
X162077Y51136D01*
X162088Y51125D01*
X162095Y51121D01*
X162099Y51117D01*
X162151Y51080D01*
X162199Y51047D01*
X162218Y51036D01*
X162236Y51025D01*
X162247Y51021D01*
X162251Y51017D01*
X162321Y50984D01*
X162358Y50969D01*
X162391Y50955D01*
X162421Y50947D01*
X162443Y50940D01*
X162458Y50932D01*
X162462D01*
X162551Y50914D01*
X162595Y50906D01*
X162632Y50903D01*
X162669D01*
X162695Y50899D01*
X162717D01*
X162773Y50903D01*
X162828Y50910D01*
X162876Y50918D01*
X162921Y50929D01*
X162958Y50940D01*
X162987Y50951D01*
X163002Y50955D01*
X163009Y50958D01*
X163057Y50984D01*
X163102Y51010D01*
X163143Y51043D01*
X163176Y51073D01*
X163206Y51099D01*
X163224Y51121D01*
X163239Y51136D01*
X163242Y51140D01*
X163279Y51188D01*
X163313Y51240D01*
X163339Y51288D01*
X163361Y51336D01*
X163379Y51376D01*
X163394Y51410D01*
X163402Y51432D01*
X163405Y51436D01*
Y51439D01*
X163424Y51510D01*
X163439Y51580D01*
X163450Y51654D01*
X163457Y51720D01*
X163461Y51776D01*
Y51802D01*
X163464Y51824D01*
Y51843D01*
Y51854D01*
Y51861D01*
Y51865D01*
X163461Y51950D01*
X163457Y52028D01*
X163446Y52098D01*
X163435Y52161D01*
X163427Y52213D01*
X163416Y52250D01*
X163413Y52264D01*
Y52276D01*
X163409Y52279D01*
Y52283D01*
X163387Y52350D01*
X163361Y52409D01*
X163335Y52460D01*
X163309Y52505D01*
X163287Y52542D01*
X163268Y52568D01*
X163254Y52586D01*
X163250Y52590D01*
X163209Y52634D01*
X163169Y52671D01*
X163128Y52701D01*
X163091Y52727D01*
X163057Y52749D01*
X163032Y52764D01*
X163017Y52771D01*
X163009Y52775D01*
X162958Y52797D01*
X162906Y52812D01*
X162858Y52827D01*
X162813Y52834D01*
X162773Y52838D01*
X162743Y52842D01*
X162665D01*
X162617Y52838D01*
X162576Y52830D01*
X162540Y52827D01*
X162510Y52819D01*
X162488Y52812D01*
X162473Y52808D01*
X162469D01*
X162391Y52782D01*
X162358Y52768D01*
X162329Y52757D01*
X162303Y52745D01*
X162284Y52734D01*
X162273Y52731D01*
X162269Y52727D01*
X162203Y52686D01*
X162177Y52668D01*
X162151Y52649D01*
X162133Y52638D01*
X162118Y52627D01*
X162110Y52620D01*
X162107Y52616D01*
X162062Y52579D01*
X162025Y52553D01*
X162003Y52535D01*
X161999Y52527D01*
X161970D01*
Y52912D01*
X162029Y52945D01*
X162058Y52956D01*
X162081Y52971D01*
X162103Y52978D01*
X162118Y52986D01*
X162129Y52993D01*
X162133D01*
X162192Y53019D01*
X162218Y53027D01*
X162243Y53038D01*
X162262Y53045D01*
X162277Y53049D01*
X162288Y53053D01*
X162292D01*
X162362Y53071D01*
X162395Y53082D01*
X162425Y53089D01*
X162451Y53093D01*
X162473Y53097D01*
X162488Y53101D01*
X162491D01*
X162569Y53112D01*
X162610Y53115D01*
X162643D01*
X162673Y53119D01*
X162717D01*
X162806Y53115D01*
D02*
G37*
G36*
X155498Y51569D02*
X155495Y51476D01*
X155491Y51395D01*
X155484Y51321D01*
X155473Y51258D01*
X155465Y51206D01*
X155458Y51169D01*
X155454Y51154D01*
Y51143D01*
X155450Y51140D01*
Y51136D01*
X155428Y51073D01*
X155398Y51014D01*
X155369Y50962D01*
X155339Y50918D01*
X155313Y50884D01*
X155291Y50855D01*
X155273Y50840D01*
X155269Y50832D01*
X155225Y50796D01*
X155180Y50762D01*
X155136Y50733D01*
X155095Y50710D01*
X155058Y50692D01*
X155028Y50681D01*
X155010Y50673D01*
X155003Y50670D01*
X154940Y50651D01*
X154877Y50636D01*
X154814Y50629D01*
X154755Y50622D01*
X154707Y50618D01*
X154666Y50614D01*
X154629D01*
X154548Y50618D01*
X154477Y50622D01*
X154414Y50629D01*
X154359Y50640D01*
X154314Y50651D01*
X154281Y50659D01*
X154263Y50662D01*
X154255Y50666D01*
X154200Y50688D01*
X154148Y50714D01*
X154104Y50744D01*
X154067Y50770D01*
X154033Y50796D01*
X154007Y50814D01*
X153992Y50829D01*
X153989Y50832D01*
X153944Y50881D01*
X153907Y50932D01*
X153874Y50984D01*
X153848Y51032D01*
X153830Y51073D01*
X153819Y51106D01*
X153811Y51129D01*
X153807Y51132D01*
Y51136D01*
X153789Y51206D01*
X153778Y51280D01*
X153767Y51354D01*
X153763Y51421D01*
X153759Y51480D01*
X153756Y51506D01*
Y51528D01*
Y51543D01*
Y51558D01*
Y51565D01*
Y51569D01*
Y53075D01*
X154078D01*
Y51565D01*
Y51506D01*
X154081Y51454D01*
X154085Y51406D01*
X154089Y51369D01*
X154092Y51336D01*
X154096Y51310D01*
X154100Y51295D01*
Y51291D01*
X154122Y51214D01*
X154137Y51177D01*
X154148Y51147D01*
X154163Y51125D01*
X154170Y51103D01*
X154177Y51091D01*
X154181Y51088D01*
X154207Y51055D01*
X154237Y51025D01*
X154270Y50999D01*
X154300Y50977D01*
X154325Y50962D01*
X154348Y50951D01*
X154362Y50943D01*
X154366Y50940D01*
X154411Y50925D01*
X154455Y50914D01*
X154499Y50903D01*
X154540Y50899D01*
X154577Y50895D01*
X154603Y50892D01*
X154629D01*
X154684Y50895D01*
X154740Y50899D01*
X154784Y50906D01*
X154825Y50918D01*
X154855Y50925D01*
X154880Y50932D01*
X154895Y50936D01*
X154899Y50940D01*
X154940Y50962D01*
X154973Y50984D01*
X155003Y51010D01*
X155028Y51032D01*
X155051Y51055D01*
X155066Y51073D01*
X155073Y51084D01*
X155077Y51088D01*
X155114Y51158D01*
X155128Y51191D01*
X155140Y51225D01*
X155147Y51251D01*
X155154Y51273D01*
X155158Y51288D01*
Y51291D01*
X155165Y51336D01*
X155169Y51384D01*
X155173Y51432D01*
Y51476D01*
X155176Y51513D01*
Y51547D01*
Y51565D01*
Y51573D01*
Y53075D01*
X155498D01*
Y51569D01*
D02*
G37*
G36*
X159624Y50666D02*
X159302D01*
X159084Y51336D01*
X158166D01*
X157948Y50666D01*
X157607D01*
X158421Y53075D01*
X158814D01*
X159624Y50666D01*
D02*
G37*
G36*
X148269Y52790D02*
X147037D01*
X148328Y50962D01*
Y50666D01*
X146644D01*
Y50951D01*
X147984D01*
X146678Y52782D01*
Y53075D01*
X148269D01*
Y52790D01*
D02*
G37*
G36*
X146589Y50666D02*
X146267D01*
X146049Y51336D01*
X145131D01*
X144913Y50666D01*
X144572D01*
X145386Y53075D01*
X145779D01*
X146589Y50666D01*
D02*
G37*
G36*
X144343D02*
X143688D01*
X143592Y50673D01*
X143510Y50677D01*
X143440Y50684D01*
X143385Y50692D01*
X143362Y50696D01*
X143344D01*
X143329Y50699D01*
X143318Y50703D01*
X143311D01*
X143240Y50722D01*
X143174Y50744D01*
X143111Y50770D01*
X143055Y50796D01*
X143007Y50818D01*
X142970Y50840D01*
X142959Y50847D01*
X142948Y50855D01*
X142944Y50858D01*
X142941D01*
X142859Y50918D01*
X142789Y50984D01*
X142726Y51055D01*
X142678Y51121D01*
X142637Y51177D01*
X142619Y51202D01*
X142608Y51225D01*
X142596Y51243D01*
X142589Y51258D01*
X142582Y51265D01*
Y51269D01*
X142537Y51373D01*
X142504Y51476D01*
X142482Y51576D01*
X142463Y51669D01*
X142460Y51709D01*
X142456Y51746D01*
X142452Y51780D01*
Y51809D01*
X142448Y51832D01*
Y51850D01*
Y51861D01*
Y51865D01*
X142452Y51994D01*
X142467Y52109D01*
X142478Y52165D01*
X142489Y52213D01*
X142500Y52261D01*
X142511Y52301D01*
X142526Y52338D01*
X142537Y52372D01*
X142548Y52401D01*
X142556Y52427D01*
X142567Y52446D01*
X142571Y52460D01*
X142578Y52468D01*
Y52472D01*
X142630Y52564D01*
X142685Y52642D01*
X142748Y52712D01*
X142804Y52771D01*
X142856Y52819D01*
X142900Y52853D01*
X142915Y52868D01*
X142926Y52875D01*
X142933Y52882D01*
X142937D01*
X142989Y52916D01*
X143044Y52942D01*
X143100Y52967D01*
X143151Y52986D01*
X143200Y53001D01*
X143233Y53012D01*
X143248Y53019D01*
X143259D01*
X143263Y53023D01*
X143266D01*
X143344Y53041D01*
X143429Y53053D01*
X143518Y53064D01*
X143603Y53067D01*
X143681Y53071D01*
X143714Y53075D01*
X144343D01*
Y50666D01*
D02*
G37*
G36*
X142097D02*
X140591D01*
Y50951D01*
X141775D01*
Y51846D01*
X140673D01*
Y52131D01*
X141775D01*
Y52790D01*
X140591D01*
Y53075D01*
X142097D01*
Y50666D01*
D02*
G37*
G36*
X128977Y52794D02*
X127734D01*
X128836Y50666D01*
X128492D01*
X127449Y52716D01*
Y53075D01*
X128977D01*
Y52794D01*
D02*
G37*
G36*
X152657Y53115D02*
X152716Y53112D01*
X152831Y53089D01*
X152883Y53075D01*
X152931Y53056D01*
X152975Y53038D01*
X153016Y53019D01*
X153053Y53001D01*
X153082Y52982D01*
X153112Y52967D01*
X153134Y52949D01*
X153153Y52938D01*
X153164Y52927D01*
X153171Y52923D01*
X153175Y52919D01*
X153216Y52882D01*
X153249Y52842D01*
X153278Y52801D01*
X153304Y52757D01*
X153326Y52716D01*
X153345Y52675D01*
X153371Y52597D01*
X153389Y52531D01*
X153393Y52501D01*
X153397Y52475D01*
X153401Y52457D01*
Y52442D01*
Y52431D01*
Y52427D01*
X153397Y52375D01*
X153393Y52331D01*
X153386Y52287D01*
X153378Y52250D01*
X153371Y52220D01*
X153367Y52198D01*
X153360Y52183D01*
Y52179D01*
X153341Y52142D01*
X153323Y52105D01*
X153304Y52072D01*
X153286Y52046D01*
X153271Y52024D01*
X153256Y52005D01*
X153249Y51994D01*
X153245Y51991D01*
X153186Y51939D01*
X153130Y51898D01*
X153104Y51883D01*
X153086Y51872D01*
X153075Y51865D01*
X153071Y51861D01*
X152994Y51828D01*
X152956Y51813D01*
X152919Y51802D01*
X152890Y51791D01*
X152868Y51787D01*
X152849Y51780D01*
X152846D01*
X152797Y51765D01*
X152753Y51754D01*
X152712Y51746D01*
X152679Y51735D01*
X152653Y51728D01*
X152631Y51724D01*
X152620Y51720D01*
X152616D01*
X152546Y51706D01*
X152509Y51695D01*
X152479Y51687D01*
X152450Y51680D01*
X152427Y51676D01*
X152413Y51669D01*
X152409D01*
X152353Y51650D01*
X152309Y51628D01*
X152268Y51606D01*
X152239Y51584D01*
X152213Y51565D01*
X152198Y51547D01*
X152187Y51535D01*
X152183Y51532D01*
X152157Y51495D01*
X152139Y51458D01*
X152128Y51421D01*
X152117Y51384D01*
X152113Y51350D01*
X152109Y51325D01*
Y51306D01*
Y51299D01*
X152117Y51236D01*
X152131Y51177D01*
X152154Y51129D01*
X152176Y51084D01*
X152202Y51051D01*
X152224Y51025D01*
X152239Y51010D01*
X152246Y51006D01*
X152302Y50969D01*
X152368Y50943D01*
X152435Y50925D01*
X152498Y50914D01*
X152557Y50906D01*
X152583Y50903D01*
X152605Y50899D01*
X152649D01*
X152720Y50903D01*
X152790Y50910D01*
X152857Y50925D01*
X152916Y50940D01*
X152964Y50951D01*
X153005Y50966D01*
X153019Y50969D01*
X153031Y50973D01*
X153034Y50977D01*
X153038D01*
X153112Y51010D01*
X153179Y51047D01*
X153238Y51088D01*
X153293Y51125D01*
X153338Y51158D01*
X153367Y51184D01*
X153389Y51202D01*
X153393Y51210D01*
X153419D01*
Y50807D01*
X153297Y50755D01*
X153241Y50729D01*
X153186Y50710D01*
X153141Y50696D01*
X153104Y50684D01*
X153093Y50681D01*
X153082Y50677D01*
X153079Y50673D01*
X153075D01*
X153001Y50655D01*
X152927Y50644D01*
X152853Y50633D01*
X152783Y50629D01*
X152720Y50625D01*
X152694Y50622D01*
X152627D01*
X152550Y50625D01*
X152479Y50629D01*
X152416Y50640D01*
X152361Y50651D01*
X152320Y50659D01*
X152287Y50670D01*
X152268Y50673D01*
X152261Y50677D01*
X152205Y50699D01*
X152157Y50725D01*
X152113Y50755D01*
X152072Y50781D01*
X152043Y50803D01*
X152017Y50821D01*
X152002Y50836D01*
X151998Y50840D01*
X151961Y50877D01*
X151928Y50914D01*
X151902Y50955D01*
X151876Y50988D01*
X151861Y51021D01*
X151847Y51047D01*
X151839Y51062D01*
X151835Y51069D01*
X151817Y51121D01*
X151802Y51173D01*
X151791Y51221D01*
X151784Y51262D01*
X151780Y51299D01*
X151776Y51328D01*
Y51343D01*
Y51350D01*
X151780Y51432D01*
X151795Y51506D01*
X151813Y51569D01*
X151835Y51624D01*
X151858Y51669D01*
X151876Y51702D01*
X151891Y51720D01*
X151895Y51728D01*
X151943Y51783D01*
X151998Y51828D01*
X152061Y51868D01*
X152120Y51902D01*
X152172Y51924D01*
X152216Y51942D01*
X152235Y51950D01*
X152246Y51954D01*
X152253Y51957D01*
X152257D01*
X152294Y51968D01*
X152335Y51980D01*
X152376Y51991D01*
X152416Y52002D01*
X152450Y52009D01*
X152476Y52017D01*
X152494Y52020D01*
X152501D01*
X152553Y52035D01*
X152601Y52046D01*
X152646Y52057D01*
X152683Y52065D01*
X152712Y52072D01*
X152734Y52079D01*
X152749Y52083D01*
X152753D01*
X152808Y52102D01*
X152857Y52124D01*
X152897Y52146D01*
X152931Y52168D01*
X152956Y52187D01*
X152975Y52201D01*
X152986Y52213D01*
X152990Y52216D01*
X153016Y52253D01*
X153034Y52294D01*
X153049Y52335D01*
X153056Y52372D01*
X153064Y52409D01*
X153068Y52435D01*
Y52453D01*
Y52460D01*
X153060Y52520D01*
X153045Y52575D01*
X153023Y52623D01*
X152997Y52660D01*
X152975Y52694D01*
X152953Y52716D01*
X152938Y52731D01*
X152931Y52734D01*
X152875Y52771D01*
X152816Y52797D01*
X152757Y52816D01*
X152698Y52827D01*
X152646Y52838D01*
X152605Y52842D01*
X152568D01*
X152494Y52838D01*
X152427Y52830D01*
X152361Y52816D01*
X152305Y52801D01*
X152257Y52786D01*
X152220Y52771D01*
X152209Y52768D01*
X152198Y52764D01*
X152194Y52760D01*
X152191D01*
X152124Y52731D01*
X152068Y52701D01*
X152017Y52668D01*
X151976Y52642D01*
X151939Y52616D01*
X151917Y52597D01*
X151898Y52583D01*
X151895Y52579D01*
X151869D01*
Y52960D01*
X151987Y53012D01*
X152043Y53030D01*
X152094Y53049D01*
X152139Y53060D01*
X152176Y53071D01*
X152198Y53078D01*
X152205D01*
X152276Y53093D01*
X152342Y53101D01*
X152405Y53108D01*
X152464Y53115D01*
X152516D01*
X152557Y53119D01*
X152590D01*
X152657Y53115D01*
D02*
G37*
G36*
X136806Y53123D02*
X136873Y53115D01*
X136935Y53097D01*
X136995Y53078D01*
X137047Y53056D01*
X137095Y53030D01*
X137139Y53004D01*
X137176Y52975D01*
X137209Y52945D01*
X137239Y52919D01*
X137265Y52893D01*
X137283Y52871D01*
X137302Y52853D01*
X137313Y52838D01*
X137317Y52827D01*
X137320Y52823D01*
X137354Y52764D01*
X137380Y52694D01*
X137405Y52623D01*
X137428Y52546D01*
X137461Y52386D01*
X137483Y52231D01*
X137490Y52157D01*
X137494Y52091D01*
X137498Y52028D01*
X137502Y51976D01*
X137505Y51931D01*
Y51898D01*
Y51876D01*
Y51872D01*
Y51868D01*
X137502Y51754D01*
X137498Y51647D01*
X137487Y51547D01*
X137476Y51450D01*
X137461Y51365D01*
X137446Y51288D01*
X137431Y51217D01*
X137413Y51158D01*
X137394Y51103D01*
X137380Y51055D01*
X137365Y51014D01*
X137350Y50981D01*
X137339Y50955D01*
X137328Y50936D01*
X137324Y50925D01*
X137320Y50921D01*
X137283Y50866D01*
X137243Y50821D01*
X137198Y50781D01*
X137150Y50744D01*
X137102Y50714D01*
X137054Y50688D01*
X137006Y50670D01*
X136958Y50651D01*
X136913Y50640D01*
X136873Y50629D01*
X136836Y50625D01*
X136802Y50618D01*
X136773D01*
X136754Y50614D01*
X136736D01*
X136665Y50618D01*
X136599Y50629D01*
X136536Y50644D01*
X136480Y50662D01*
X136429Y50684D01*
X136381Y50710D01*
X136336Y50736D01*
X136299Y50766D01*
X136266Y50796D01*
X136236Y50821D01*
X136210Y50847D01*
X136192Y50870D01*
X136173Y50888D01*
X136162Y50906D01*
X136159Y50914D01*
X136155Y50918D01*
X136121Y50977D01*
X136092Y51047D01*
X136066Y51117D01*
X136044Y51195D01*
X136011Y51350D01*
X135988Y51506D01*
X135981Y51580D01*
X135977Y51647D01*
X135974Y51709D01*
X135970Y51761D01*
X135966Y51806D01*
Y51839D01*
Y51861D01*
Y51868D01*
X135970Y51983D01*
X135974Y52091D01*
X135985Y52190D01*
X135996Y52283D01*
X136011Y52368D01*
X136025Y52442D01*
X136044Y52512D01*
X136059Y52575D01*
X136077Y52631D01*
X136096Y52679D01*
X136110Y52719D01*
X136125Y52753D01*
X136136Y52779D01*
X136147Y52797D01*
X136151Y52808D01*
X136155Y52812D01*
X136192Y52868D01*
X136232Y52916D01*
X136277Y52956D01*
X136325Y52993D01*
X136373Y53023D01*
X136421Y53049D01*
X136469Y53071D01*
X136514Y53086D01*
X136558Y53101D01*
X136599Y53112D01*
X136639Y53115D01*
X136669Y53123D01*
X136699D01*
X136717Y53127D01*
X136736D01*
X136806Y53123D01*
D02*
G37*
G36*
X130113Y53123D02*
X130179Y53115D01*
X130242Y53097D01*
X130301Y53078D01*
X130353Y53056D01*
X130401Y53030D01*
X130446Y53004D01*
X130483Y52975D01*
X130516Y52945D01*
X130546Y52919D01*
X130571Y52893D01*
X130590Y52871D01*
X130608Y52853D01*
X130620Y52838D01*
X130623Y52827D01*
X130627Y52823D01*
X130660Y52764D01*
X130686Y52694D01*
X130712Y52623D01*
X130734Y52546D01*
X130768Y52386D01*
X130790Y52231D01*
X130797Y52157D01*
X130801Y52091D01*
X130805Y52028D01*
X130808Y51976D01*
X130812Y51931D01*
Y51898D01*
Y51876D01*
Y51872D01*
Y51868D01*
X130808Y51754D01*
X130805Y51647D01*
X130793Y51547D01*
X130782Y51450D01*
X130768Y51365D01*
X130753Y51288D01*
X130738Y51217D01*
X130719Y51158D01*
X130701Y51103D01*
X130686Y51055D01*
X130671Y51014D01*
X130657Y50981D01*
X130646Y50955D01*
X130634Y50936D01*
X130631Y50925D01*
X130627Y50921D01*
X130590Y50866D01*
X130549Y50821D01*
X130505Y50781D01*
X130457Y50744D01*
X130409Y50714D01*
X130361Y50688D01*
X130313Y50670D01*
X130264Y50651D01*
X130220Y50640D01*
X130179Y50629D01*
X130142Y50625D01*
X130109Y50618D01*
X130079D01*
X130061Y50614D01*
X130042D01*
X129972Y50618D01*
X129905Y50629D01*
X129843Y50644D01*
X129787Y50662D01*
X129735Y50684D01*
X129687Y50710D01*
X129643Y50736D01*
X129606Y50766D01*
X129572Y50796D01*
X129543Y50821D01*
X129517Y50847D01*
X129499Y50870D01*
X129480Y50888D01*
X129469Y50906D01*
X129465Y50914D01*
X129462Y50918D01*
X129428Y50977D01*
X129399Y51047D01*
X129373Y51117D01*
X129350Y51195D01*
X129317Y51350D01*
X129295Y51506D01*
X129288Y51580D01*
X129284Y51647D01*
X129280Y51709D01*
X129277Y51761D01*
X129273Y51806D01*
Y51839D01*
Y51861D01*
Y51868D01*
X129277Y51983D01*
X129280Y52091D01*
X129291Y52190D01*
X129302Y52283D01*
X129317Y52368D01*
X129332Y52442D01*
X129350Y52512D01*
X129365Y52575D01*
X129384Y52631D01*
X129402Y52679D01*
X129417Y52719D01*
X129432Y52753D01*
X129443Y52779D01*
X129454Y52797D01*
X129458Y52808D01*
X129462Y52812D01*
X129499Y52868D01*
X129539Y52916D01*
X129584Y52956D01*
X129632Y52993D01*
X129680Y53023D01*
X129728Y53049D01*
X129776Y53071D01*
X129820Y53086D01*
X129865Y53101D01*
X129905Y53112D01*
X129946Y53115D01*
X129976Y53123D01*
X130005D01*
X130024Y53127D01*
X130042D01*
X130113Y53123D01*
D02*
G37*
G36*
X123408D02*
X123460Y53119D01*
X123564Y53097D01*
X123653Y53071D01*
X123726Y53038D01*
X123760Y53019D01*
X123789Y53004D01*
X123812Y52986D01*
X123834Y52975D01*
X123849Y52964D01*
X123860Y52953D01*
X123867Y52949D01*
X123871Y52945D01*
X123908Y52912D01*
X123937Y52875D01*
X123963Y52834D01*
X123989Y52797D01*
X124026Y52723D01*
X124048Y52649D01*
X124063Y52586D01*
X124067Y52560D01*
X124071Y52535D01*
X124074Y52516D01*
Y52501D01*
Y52494D01*
Y52490D01*
X124071Y52424D01*
X124059Y52364D01*
X124048Y52312D01*
X124030Y52268D01*
X124015Y52231D01*
X124004Y52205D01*
X123993Y52190D01*
X123989Y52183D01*
X123952Y52139D01*
X123911Y52098D01*
X123867Y52057D01*
X123826Y52024D01*
X123786Y51998D01*
X123756Y51976D01*
X123734Y51961D01*
X123730Y51957D01*
X123726D01*
Y51950D01*
X123797Y51909D01*
X123860Y51868D01*
X123911Y51824D01*
X123952Y51780D01*
X123986Y51743D01*
X124011Y51713D01*
X124026Y51695D01*
X124030Y51691D01*
Y51687D01*
X124063Y51624D01*
X124089Y51561D01*
X124108Y51502D01*
X124119Y51447D01*
X124126Y51399D01*
X124134Y51362D01*
Y51347D01*
Y51336D01*
Y51332D01*
Y51328D01*
X124130Y51273D01*
X124126Y51221D01*
X124119Y51173D01*
X124108Y51132D01*
X124097Y51099D01*
X124089Y51069D01*
X124085Y51055D01*
X124082Y51047D01*
X124059Y50999D01*
X124037Y50955D01*
X124011Y50914D01*
X123986Y50881D01*
X123963Y50851D01*
X123945Y50832D01*
X123934Y50818D01*
X123930Y50814D01*
X123889Y50781D01*
X123849Y50747D01*
X123804Y50722D01*
X123764Y50699D01*
X123730Y50684D01*
X123704Y50673D01*
X123686Y50666D01*
X123678Y50662D01*
X123623Y50644D01*
X123564Y50633D01*
X123508Y50622D01*
X123456Y50618D01*
X123416Y50614D01*
X123379Y50611D01*
X123349D01*
X123286Y50614D01*
X123231Y50618D01*
X123120Y50644D01*
X123027Y50677D01*
X122983Y50696D01*
X122946Y50714D01*
X122909Y50733D01*
X122879Y50751D01*
X122853Y50770D01*
X122831Y50784D01*
X122813Y50799D01*
X122801Y50810D01*
X122794Y50814D01*
X122790Y50818D01*
X122750Y50858D01*
X122716Y50899D01*
X122687Y50943D01*
X122661Y50988D01*
X122639Y51029D01*
X122620Y51073D01*
X122594Y51154D01*
X122576Y51228D01*
X122572Y51258D01*
X122568Y51284D01*
X122565Y51306D01*
Y51321D01*
Y51332D01*
Y51336D01*
X122568Y51413D01*
X122583Y51484D01*
X122598Y51547D01*
X122620Y51598D01*
X122639Y51639D01*
X122657Y51669D01*
X122672Y51687D01*
X122676Y51695D01*
X122720Y51746D01*
X122772Y51791D01*
X122824Y51832D01*
X122875Y51868D01*
X122920Y51894D01*
X122961Y51917D01*
X122975Y51924D01*
X122983Y51931D01*
X122990Y51935D01*
X122994D01*
Y51946D01*
X122931Y51983D01*
X122875Y52020D01*
X122827Y52061D01*
X122790Y52102D01*
X122761Y52135D01*
X122739Y52165D01*
X122724Y52183D01*
X122720Y52190D01*
X122687Y52250D01*
X122665Y52309D01*
X122646Y52361D01*
X122635Y52412D01*
X122628Y52453D01*
X122624Y52483D01*
Y52505D01*
Y52512D01*
X122628Y52560D01*
X122631Y52609D01*
X122653Y52694D01*
X122687Y52768D01*
X122724Y52834D01*
X122761Y52882D01*
X122794Y52923D01*
X122805Y52934D01*
X122816Y52945D01*
X122820Y52949D01*
X122824Y52953D01*
X122861Y52982D01*
X122905Y53012D01*
X122990Y53053D01*
X123079Y53086D01*
X123160Y53104D01*
X123234Y53119D01*
X123268Y53123D01*
X123294D01*
X123316Y53127D01*
X123349D01*
X123408Y53123D01*
D02*
G37*
G36*
X132248Y50141D02*
X131977D01*
X131030Y53182D01*
X131308D01*
X132248Y50141D01*
D02*
G37*
G36*
X127364D02*
X127094D01*
X126146Y53182D01*
X126424D01*
X127364Y50141D01*
D02*
G37*
G36*
X164500Y53056D02*
X164589Y52927D01*
X164663Y52808D01*
X164697Y52749D01*
X164726Y52697D01*
X164752Y52649D01*
X164774Y52601D01*
X164796Y52564D01*
X164811Y52531D01*
X164822Y52501D01*
X164833Y52483D01*
X164837Y52468D01*
X164841Y52464D01*
X164871Y52394D01*
X164893Y52320D01*
X164933Y52168D01*
X164959Y52024D01*
X164970Y51954D01*
X164981Y51887D01*
X164985Y51824D01*
X164993Y51769D01*
X164996Y51717D01*
Y51676D01*
X165000Y51639D01*
Y51613D01*
Y51598D01*
Y51591D01*
X164996Y51499D01*
X164993Y51406D01*
X164985Y51321D01*
X164974Y51236D01*
X164963Y51158D01*
X164948Y51088D01*
X164933Y51021D01*
X164919Y50958D01*
X164904Y50903D01*
X164893Y50851D01*
X164878Y50810D01*
X164867Y50773D01*
X164856Y50744D01*
X164848Y50725D01*
X164841Y50710D01*
Y50707D01*
X164778Y50570D01*
X164704Y50440D01*
X164630Y50322D01*
X164597Y50266D01*
X164560Y50215D01*
X164526Y50166D01*
X164497Y50126D01*
X164471Y50089D01*
X164449Y50059D01*
X164427Y50033D01*
X164412Y50015D01*
X164404Y50004D01*
X164401Y50000D01*
X164027D01*
Y50019D01*
X164075Y50063D01*
X164119Y50107D01*
X164160Y50155D01*
X164201Y50196D01*
X164230Y50237D01*
X164256Y50266D01*
X164271Y50285D01*
X164278Y50292D01*
X164323Y50355D01*
X164364Y50414D01*
X164401Y50477D01*
X164434Y50533D01*
X164460Y50581D01*
X164478Y50618D01*
X164486Y50633D01*
X164493Y50644D01*
X164497Y50647D01*
Y50651D01*
X164534Y50729D01*
X164563Y50807D01*
X164589Y50877D01*
X164615Y50943D01*
X164630Y51003D01*
X164637Y51025D01*
X164645Y51043D01*
X164648Y51062D01*
X164652Y51073D01*
X164656Y51080D01*
Y51084D01*
X164674Y51173D01*
X164689Y51262D01*
X164697Y51347D01*
X164704Y51424D01*
X164708Y51491D01*
X164711Y51521D01*
Y51543D01*
Y51565D01*
Y51580D01*
Y51587D01*
Y51591D01*
X164708Y51687D01*
X164700Y51780D01*
X164693Y51865D01*
X164682Y51942D01*
X164674Y51976D01*
X164671Y52005D01*
X164667Y52031D01*
X164660Y52053D01*
X164656Y52072D01*
Y52083D01*
X164652Y52091D01*
Y52094D01*
X164630Y52183D01*
X164604Y52264D01*
X164578Y52338D01*
X164552Y52401D01*
X164530Y52457D01*
X164519Y52479D01*
X164512Y52498D01*
X164504Y52512D01*
X164500Y52523D01*
X164497Y52527D01*
Y52531D01*
X164460Y52605D01*
X164419Y52675D01*
X164382Y52734D01*
X164349Y52790D01*
X164323Y52830D01*
X164297Y52864D01*
X164282Y52882D01*
X164278Y52890D01*
X164234Y52945D01*
X164190Y52997D01*
X164145Y53045D01*
X164108Y53086D01*
X164075Y53119D01*
X164049Y53141D01*
X164034Y53160D01*
X164027Y53163D01*
Y53182D01*
X164401D01*
X164500Y53056D01*
D02*
G37*
G36*
X161792Y53163D02*
X161748Y53119D01*
X161703Y53075D01*
X161663Y53027D01*
X161626Y52986D01*
X161592Y52949D01*
X161570Y52916D01*
X161552Y52897D01*
X161548Y52893D01*
Y52890D01*
X161504Y52830D01*
X161463Y52768D01*
X161422Y52705D01*
X161392Y52649D01*
X161363Y52601D01*
X161344Y52564D01*
X161337Y52549D01*
X161330Y52538D01*
X161326Y52535D01*
Y52531D01*
X161293Y52453D01*
X161259Y52379D01*
X161233Y52305D01*
X161211Y52239D01*
X161193Y52179D01*
X161185Y52157D01*
X161182Y52135D01*
X161178Y52116D01*
X161174Y52105D01*
X161170Y52098D01*
Y52094D01*
X161148Y52005D01*
X161134Y51917D01*
X161122Y51832D01*
X161115Y51754D01*
X161111Y51687D01*
X161108Y51661D01*
Y51635D01*
Y51617D01*
Y51602D01*
Y51595D01*
Y51591D01*
X161111Y51491D01*
X161115Y51399D01*
X161126Y51314D01*
X161137Y51240D01*
X161141Y51206D01*
X161148Y51177D01*
X161152Y51151D01*
X161156Y51129D01*
X161159Y51110D01*
X161163Y51099D01*
X161167Y51091D01*
Y51088D01*
X161189Y51003D01*
X161215Y50921D01*
X161244Y50847D01*
X161267Y50781D01*
X161293Y50729D01*
X161300Y50707D01*
X161307Y50688D01*
X161315Y50673D01*
X161322Y50662D01*
X161326Y50655D01*
Y50651D01*
X161363Y50581D01*
X161400Y50514D01*
X161437Y50451D01*
X161470Y50400D01*
X161500Y50355D01*
X161522Y50322D01*
X161537Y50300D01*
X161544Y50296D01*
Y50292D01*
X161592Y50233D01*
X161637Y50181D01*
X161677Y50133D01*
X161714Y50096D01*
X161748Y50063D01*
X161770Y50037D01*
X161785Y50022D01*
X161792Y50019D01*
Y50000D01*
X161422D01*
X161322Y50126D01*
X161233Y50252D01*
X161159Y50374D01*
X161126Y50429D01*
X161097Y50481D01*
X161071Y50529D01*
X161048Y50573D01*
X161026Y50614D01*
X161011Y50647D01*
X160997Y50673D01*
X160989Y50696D01*
X160982Y50707D01*
Y50710D01*
X160952Y50784D01*
X160926Y50858D01*
X160889Y51006D01*
X160860Y51154D01*
X160849Y51225D01*
X160837Y51291D01*
X160834Y51354D01*
X160826Y51413D01*
X160823Y51461D01*
Y51506D01*
X160819Y51543D01*
Y51569D01*
Y51584D01*
Y51591D01*
Y51683D01*
X160826Y51772D01*
X160834Y51857D01*
X160845Y51939D01*
X160856Y52017D01*
X160871Y52087D01*
X160886Y52153D01*
X160900Y52216D01*
X160915Y52272D01*
X160930Y52324D01*
X160945Y52364D01*
X160956Y52401D01*
X160967Y52431D01*
X160974Y52449D01*
X160978Y52464D01*
X160982Y52468D01*
X161045Y52609D01*
X161119Y52738D01*
X161193Y52860D01*
X161226Y52916D01*
X161263Y52967D01*
X161293Y53012D01*
X161326Y53056D01*
X161352Y53093D01*
X161374Y53123D01*
X161396Y53149D01*
X161411Y53167D01*
X161418Y53178D01*
X161422Y53182D01*
X161792D01*
Y53163D01*
D02*
G37*
%LPC*%
G36*
X133161Y51935D02*
X133121D01*
X133062Y51931D01*
X133036Y51928D01*
X133010D01*
X132991Y51924D01*
X132976Y51920D01*
X132965Y51917D01*
X132962D01*
X132906Y51902D01*
X132880Y51891D01*
X132858Y51880D01*
X132843Y51868D01*
X132828Y51857D01*
X132821Y51854D01*
X132817Y51850D01*
X132788Y51824D01*
X132762Y51794D01*
X132740Y51765D01*
X132721Y51739D01*
X132706Y51717D01*
X132699Y51698D01*
X132692Y51683D01*
Y51680D01*
X132677Y51639D01*
X132669Y51598D01*
X132662Y51558D01*
X132655Y51517D01*
Y51484D01*
X132651Y51458D01*
Y51439D01*
Y51432D01*
X132655Y51336D01*
X132669Y51251D01*
X132688Y51180D01*
X132710Y51121D01*
X132736Y51077D01*
X132755Y51043D01*
X132769Y51025D01*
X132773Y51017D01*
X132821Y50973D01*
X132873Y50940D01*
X132925Y50914D01*
X132973Y50899D01*
X133017Y50888D01*
X133051Y50884D01*
X133065Y50881D01*
X133084D01*
X133143Y50884D01*
X133173Y50892D01*
X133195Y50895D01*
X133213Y50903D01*
X133228Y50906D01*
X133239Y50910D01*
X133243D01*
X133269Y50925D01*
X133295Y50940D01*
X133339Y50973D01*
X133358Y50988D01*
X133372Y51003D01*
X133380Y51010D01*
X133384Y51014D01*
X133409Y51047D01*
X133435Y51084D01*
X133454Y51125D01*
X133472Y51162D01*
X133487Y51195D01*
X133498Y51221D01*
X133502Y51240D01*
X133506Y51247D01*
X133520Y51306D01*
X133531Y51373D01*
X133543Y51443D01*
X133546Y51506D01*
X133550Y51561D01*
X133554Y51587D01*
Y51609D01*
Y51624D01*
Y51639D01*
Y51647D01*
Y51650D01*
Y51683D01*
Y51709D01*
Y51724D01*
Y51732D01*
Y51758D01*
X133550Y51780D01*
Y51794D01*
Y51802D01*
X133472Y51843D01*
X133439Y51861D01*
X133406Y51872D01*
X133380Y51883D01*
X133361Y51891D01*
X133346Y51898D01*
X133343D01*
X133261Y51920D01*
X133224Y51928D01*
X133191Y51931D01*
X133161Y51935D01*
D02*
G37*
G36*
X158625Y52742D02*
X158255Y51613D01*
X158995D01*
X158625Y52742D01*
D02*
G37*
G36*
X145590D02*
X145220Y51613D01*
X145960D01*
X145590Y52742D01*
D02*
G37*
G36*
X144021Y52797D02*
X143703D01*
X143632Y52790D01*
X143570Y52786D01*
X143518Y52779D01*
X143473Y52771D01*
X143444Y52768D01*
X143425Y52760D01*
X143418D01*
X143366Y52745D01*
X143314Y52731D01*
X143270Y52712D01*
X143229Y52694D01*
X143196Y52675D01*
X143170Y52660D01*
X143155Y52653D01*
X143148Y52649D01*
X143085Y52605D01*
X143029Y52557D01*
X142981Y52505D01*
X142944Y52457D01*
X142911Y52412D01*
X142893Y52379D01*
X142885Y52364D01*
X142878Y52353D01*
X142874Y52350D01*
Y52346D01*
X142844Y52268D01*
X142822Y52190D01*
X142804Y52109D01*
X142793Y52035D01*
X142785Y51972D01*
Y51942D01*
X142781Y51920D01*
Y51898D01*
Y51883D01*
Y51876D01*
Y51872D01*
X142785Y51772D01*
X142796Y51680D01*
X142807Y51598D01*
X142822Y51532D01*
X142841Y51476D01*
X142848Y51454D01*
X142852Y51436D01*
X142859Y51421D01*
X142863Y51410D01*
X142867Y51406D01*
Y51402D01*
X142900Y51336D01*
X142941Y51276D01*
X142985Y51225D01*
X143026Y51180D01*
X143063Y51147D01*
X143092Y51125D01*
X143111Y51106D01*
X143114Y51103D01*
X143118D01*
X143166Y51069D01*
X143218Y51043D01*
X143266Y51021D01*
X143311Y51006D01*
X143351Y50992D01*
X143381Y50984D01*
X143399Y50977D01*
X143407D01*
X143470Y50966D01*
X143533Y50958D01*
X143596Y50951D01*
X143655Y50947D01*
X143703D01*
X143744Y50943D01*
X144021D01*
Y52797D01*
D02*
G37*
G36*
X136758Y52860D02*
X136736D01*
X136688Y52856D01*
X136647Y52849D01*
X136606Y52838D01*
X136577Y52827D01*
X136551Y52816D01*
X136532Y52805D01*
X136521Y52797D01*
X136517Y52794D01*
X136488Y52768D01*
X136462Y52738D01*
X136436Y52708D01*
X136417Y52679D01*
X136403Y52649D01*
X136392Y52627D01*
X136388Y52612D01*
X136384Y52609D01*
X136366Y52560D01*
X136355Y52509D01*
X136344Y52457D01*
X136332Y52409D01*
X136325Y52368D01*
X136321Y52331D01*
X136318Y52309D01*
Y52305D01*
Y52301D01*
X136310Y52231D01*
X136303Y52157D01*
X136299Y52083D01*
Y52017D01*
X136295Y51957D01*
Y51931D01*
Y51909D01*
Y51894D01*
Y51880D01*
Y51872D01*
Y51868D01*
Y51780D01*
X136299Y51695D01*
X136303Y51624D01*
X136307Y51558D01*
X136310Y51506D01*
X136314Y51469D01*
Y51454D01*
X136318Y51443D01*
Y51439D01*
Y51436D01*
X136325Y51369D01*
X136336Y51314D01*
X136347Y51262D01*
X136358Y51217D01*
X136369Y51180D01*
X136377Y51154D01*
X136381Y51140D01*
X136384Y51132D01*
X136403Y51088D01*
X136425Y51051D01*
X136447Y51017D01*
X136469Y50992D01*
X136488Y50969D01*
X136503Y50955D01*
X136514Y50947D01*
X136517Y50943D01*
X136551Y50921D01*
X136588Y50906D01*
X136625Y50895D01*
X136658Y50888D01*
X136688Y50884D01*
X136714Y50881D01*
X136736D01*
X136787Y50884D01*
X136832Y50892D01*
X136869Y50903D01*
X136902Y50914D01*
X136928Y50925D01*
X136950Y50936D01*
X136961Y50943D01*
X136965Y50947D01*
X136995Y50973D01*
X137021Y51006D01*
X137043Y51036D01*
X137061Y51069D01*
X137076Y51095D01*
X137087Y51117D01*
X137091Y51136D01*
X137095Y51140D01*
X137128Y51243D01*
X137139Y51295D01*
X137146Y51343D01*
X137154Y51384D01*
X137157Y51413D01*
X137161Y51436D01*
Y51443D01*
X137165Y51510D01*
X137169Y51580D01*
X137172Y51654D01*
Y51720D01*
X137176Y51780D01*
Y51806D01*
Y51828D01*
Y51843D01*
Y51857D01*
Y51865D01*
Y51868D01*
Y51954D01*
X137172Y52035D01*
Y52105D01*
X137169Y52168D01*
X137165Y52220D01*
Y52257D01*
X137161Y52272D01*
Y52283D01*
Y52287D01*
Y52290D01*
X137154Y52357D01*
X137143Y52420D01*
X137132Y52472D01*
X137120Y52520D01*
X137109Y52557D01*
X137102Y52583D01*
X137098Y52597D01*
X137095Y52605D01*
X137072Y52649D01*
X137050Y52686D01*
X137028Y52719D01*
X137006Y52745D01*
X136987Y52768D01*
X136972Y52782D01*
X136961Y52790D01*
X136958Y52794D01*
X136924Y52816D01*
X136887Y52830D01*
X136850Y52845D01*
X136813Y52853D01*
X136784Y52856D01*
X136758Y52860D01*
D02*
G37*
G36*
X130065Y52860D02*
X130042D01*
X129994Y52856D01*
X129954Y52849D01*
X129913Y52838D01*
X129883Y52827D01*
X129857Y52816D01*
X129839Y52805D01*
X129828Y52797D01*
X129824Y52794D01*
X129795Y52768D01*
X129769Y52738D01*
X129743Y52708D01*
X129724Y52679D01*
X129709Y52649D01*
X129698Y52627D01*
X129695Y52612D01*
X129691Y52609D01*
X129672Y52560D01*
X129661Y52509D01*
X129650Y52457D01*
X129639Y52409D01*
X129632Y52368D01*
X129628Y52331D01*
X129624Y52309D01*
Y52305D01*
Y52301D01*
X129617Y52231D01*
X129610Y52157D01*
X129606Y52083D01*
Y52017D01*
X129602Y51957D01*
Y51931D01*
Y51909D01*
Y51894D01*
Y51880D01*
Y51872D01*
Y51868D01*
Y51780D01*
X129606Y51695D01*
X129610Y51624D01*
X129613Y51558D01*
X129617Y51506D01*
X129621Y51469D01*
Y51454D01*
X129624Y51443D01*
Y51439D01*
Y51436D01*
X129632Y51369D01*
X129643Y51314D01*
X129654Y51262D01*
X129665Y51217D01*
X129676Y51180D01*
X129683Y51154D01*
X129687Y51140D01*
X129691Y51132D01*
X129709Y51088D01*
X129732Y51051D01*
X129754Y51017D01*
X129776Y50992D01*
X129795Y50969D01*
X129809Y50955D01*
X129820Y50947D01*
X129824Y50943D01*
X129857Y50921D01*
X129894Y50906D01*
X129931Y50895D01*
X129965Y50888D01*
X129994Y50884D01*
X130020Y50881D01*
X130042D01*
X130094Y50884D01*
X130139Y50892D01*
X130176Y50903D01*
X130209Y50914D01*
X130235Y50925D01*
X130257Y50936D01*
X130268Y50943D01*
X130272Y50947D01*
X130301Y50973D01*
X130327Y51006D01*
X130350Y51036D01*
X130368Y51069D01*
X130383Y51095D01*
X130394Y51117D01*
X130398Y51136D01*
X130401Y51140D01*
X130435Y51243D01*
X130446Y51295D01*
X130453Y51343D01*
X130461Y51384D01*
X130464Y51413D01*
X130468Y51436D01*
Y51443D01*
X130472Y51510D01*
X130475Y51580D01*
X130479Y51654D01*
Y51720D01*
X130483Y51780D01*
Y51806D01*
Y51828D01*
Y51843D01*
Y51857D01*
Y51865D01*
Y51868D01*
Y51954D01*
X130479Y52035D01*
Y52105D01*
X130475Y52168D01*
X130472Y52220D01*
Y52257D01*
X130468Y52272D01*
Y52283D01*
Y52287D01*
Y52290D01*
X130461Y52357D01*
X130449Y52420D01*
X130438Y52472D01*
X130427Y52520D01*
X130416Y52557D01*
X130409Y52583D01*
X130405Y52597D01*
X130401Y52605D01*
X130379Y52649D01*
X130357Y52686D01*
X130335Y52719D01*
X130313Y52745D01*
X130294Y52768D01*
X130279Y52782D01*
X130268Y52790D01*
X130264Y52794D01*
X130231Y52816D01*
X130194Y52830D01*
X130157Y52845D01*
X130120Y52853D01*
X130090Y52856D01*
X130065Y52860D01*
D02*
G37*
G36*
X123382Y52893D02*
X123353D01*
X123286Y52890D01*
X123223Y52875D01*
X123171Y52860D01*
X123131Y52838D01*
X123098Y52819D01*
X123072Y52801D01*
X123057Y52786D01*
X123053Y52782D01*
X123016Y52742D01*
X122990Y52694D01*
X122968Y52649D01*
X122957Y52609D01*
X122950Y52568D01*
X122942Y52538D01*
Y52520D01*
Y52516D01*
Y52512D01*
X122946Y52457D01*
X122950Y52409D01*
X122957Y52364D01*
X122968Y52327D01*
X122979Y52294D01*
X122986Y52272D01*
X122990Y52253D01*
X122994Y52250D01*
X123016Y52209D01*
X123046Y52168D01*
X123079Y52127D01*
X123109Y52094D01*
X123138Y52068D01*
X123164Y52046D01*
X123179Y52031D01*
X123186Y52028D01*
X123249Y52050D01*
X123279Y52061D01*
X123308Y52076D01*
X123334Y52087D01*
X123353Y52094D01*
X123368Y52098D01*
X123371Y52102D01*
X123408Y52120D01*
X123438Y52135D01*
X123464Y52146D01*
X123486Y52157D01*
X123501Y52168D01*
X123512Y52176D01*
X123519Y52179D01*
X123523D01*
X123564Y52205D01*
X123597Y52231D01*
X123627Y52257D01*
X123653Y52279D01*
X123671Y52298D01*
X123686Y52312D01*
X123693Y52324D01*
X123697Y52327D01*
X123715Y52361D01*
X123730Y52394D01*
X123738Y52427D01*
X123745Y52460D01*
X123749Y52486D01*
X123752Y52512D01*
Y52527D01*
Y52531D01*
X123749Y52590D01*
X123734Y52642D01*
X123715Y52686D01*
X123697Y52723D01*
X123675Y52753D01*
X123660Y52775D01*
X123645Y52790D01*
X123641Y52794D01*
X123597Y52827D01*
X123549Y52853D01*
X123501Y52868D01*
X123456Y52882D01*
X123416Y52890D01*
X123382Y52893D01*
D02*
G37*
G36*
X123530Y51868D02*
X123490Y51850D01*
X123449Y51835D01*
X123416Y51820D01*
X123386Y51809D01*
X123360Y51798D01*
X123342Y51791D01*
X123331Y51783D01*
X123327D01*
X123294Y51769D01*
X123264Y51758D01*
X123238Y51746D01*
X123220Y51735D01*
X123201Y51728D01*
X123190Y51720D01*
X123183Y51717D01*
X123179D01*
X123120Y51683D01*
X123072Y51650D01*
X123035Y51621D01*
X123005Y51595D01*
X122979Y51573D01*
X122964Y51554D01*
X122957Y51543D01*
X122953Y51539D01*
X122935Y51502D01*
X122920Y51465D01*
X122909Y51424D01*
X122901Y51388D01*
X122898Y51354D01*
X122894Y51328D01*
Y51310D01*
Y51302D01*
X122898Y51228D01*
X122913Y51162D01*
X122935Y51106D01*
X122957Y51058D01*
X122979Y51017D01*
X123001Y50992D01*
X123016Y50977D01*
X123020Y50969D01*
X123068Y50929D01*
X123123Y50903D01*
X123175Y50881D01*
X123227Y50866D01*
X123275Y50858D01*
X123312Y50855D01*
X123327Y50851D01*
X123345D01*
X123416Y50858D01*
X123479Y50873D01*
X123534Y50895D01*
X123582Y50921D01*
X123623Y50947D01*
X123653Y50969D01*
X123667Y50984D01*
X123675Y50992D01*
X123719Y51047D01*
X123749Y51106D01*
X123771Y51165D01*
X123789Y51225D01*
X123797Y51273D01*
X123801Y51314D01*
X123804Y51328D01*
Y51339D01*
Y51347D01*
Y51350D01*
X123801Y51410D01*
X123793Y51469D01*
X123782Y51517D01*
X123767Y51561D01*
X123756Y51598D01*
X123745Y51624D01*
X123738Y51639D01*
X123734Y51647D01*
X123704Y51695D01*
X123671Y51739D01*
X123638Y51776D01*
X123604Y51809D01*
X123575Y51835D01*
X123553Y51854D01*
X123538Y51865D01*
X123530Y51868D01*
D02*
G37*
%LPD*%
D13*
X270000Y90000D02*
Y100000D01*
X30000D02*
X270000D01*
X30000Y90000D02*
Y100000D01*
Y90000D02*
X270000D01*
Y0D02*
Y10000D01*
X30000D02*
X270000D01*
X30000Y0D02*
Y10000D01*
Y0D02*
X270000D01*
D14*
X263567Y85234D02*
X262901Y85901D01*
Y87234D01*
X263567Y87900D01*
X266233D01*
X266900Y87234D01*
Y85901D01*
X266233Y85234D01*
X264900D01*
Y86567D01*
X266900Y83901D02*
X262901D01*
X266900Y81235D01*
X262901D01*
Y79902D02*
X266900D01*
Y77903D01*
X266233Y77237D01*
X263567D01*
X262901Y77903D01*
Y79902D01*
X36432Y14766D02*
X37099Y14099D01*
Y12766D01*
X36432Y12100D01*
X33767D01*
X33100Y12766D01*
Y14099D01*
X33767Y14766D01*
X35100D01*
Y13433D01*
X33100Y16099D02*
X37099D01*
X33100Y18765D01*
X37099D01*
Y20097D02*
X33100D01*
Y22097D01*
X33767Y22763D01*
X36432D01*
X37099Y22097D01*
Y20097D01*
X263600Y106600D02*
Y107933D01*
Y107266D01*
X267599D01*
X266932Y106600D01*
X263100Y-2900D02*
Y-1567D01*
Y-2234D01*
X267099D01*
X266432Y-2900D01*
X175577Y58734D02*
X176244Y59400D01*
X177577D01*
X178243Y58734D01*
Y56068D01*
X177577Y55401D01*
X176244D01*
X175577Y56068D01*
X174244Y59400D02*
Y56068D01*
X173578Y55401D01*
X172245D01*
X171579Y56068D01*
Y59400D01*
X167580Y58734D02*
X168246Y59400D01*
X169579D01*
X170246Y58734D01*
Y58067D01*
X169579Y57401D01*
X168246D01*
X167580Y56734D01*
Y56068D01*
X168246Y55401D01*
X169579D01*
X170246Y56068D01*
X166247Y59400D02*
X163581D01*
X164914D01*
Y55401D01*
X160249Y59400D02*
X161582D01*
X162248Y58734D01*
Y56068D01*
X161582Y55401D01*
X160249D01*
X159583Y56068D01*
Y58734D01*
X160249Y59400D01*
X158250Y55401D02*
Y59400D01*
X156917Y58067D01*
X155584Y59400D01*
Y55401D01*
X147587Y59400D02*
X150252D01*
Y55401D01*
X147587D01*
X150252Y57401D02*
X148919D01*
X143588Y58734D02*
X144254Y59400D01*
X145587D01*
X146254Y58734D01*
Y58067D01*
X145587Y57401D01*
X144254D01*
X143588Y56734D01*
Y56068D01*
X144254Y55401D01*
X145587D01*
X146254Y56068D01*
X142255Y55401D02*
Y59400D01*
X140255D01*
X139589Y58734D01*
Y57401D01*
X140255Y56734D01*
X142255D01*
X138256Y58734D02*
X137590Y59400D01*
X136257D01*
X135590Y58734D01*
Y58067D01*
X136257Y57401D01*
X136923D01*
X136257D01*
X135590Y56734D01*
Y56068D01*
X136257Y55401D01*
X137590D01*
X138256Y56068D01*
X131592Y55401D02*
X134257D01*
X131592Y58067D01*
Y58734D01*
X132258Y59400D01*
X133591D01*
X134257Y58734D01*
X126260Y59400D02*
Y55401D01*
X124261D01*
X123594Y56068D01*
Y58734D01*
X124261Y59400D01*
X126260D01*
X120262Y55401D02*
X121595D01*
X122261Y56068D01*
Y57401D01*
X121595Y58067D01*
X120262D01*
X119596Y57401D01*
Y56734D01*
X122261D01*
X118263Y58067D02*
X116930Y55401D01*
X115597Y58067D01*
X114264Y59400D02*
Y55401D01*
Y56734D01*
X111598Y59400D01*
X113597Y57401D01*
X111598Y55401D01*
X110265D02*
X108932D01*
X109599D01*
Y58067D01*
X110265D01*
X106266Y58734D02*
Y58067D01*
X106933D01*
X105600D01*
X106266D01*
Y56068D01*
X105600Y55401D01*
X45858Y14766D02*
X46525Y14099D01*
Y12766D01*
X45858Y12100D01*
X43193D01*
X42526Y12766D01*
Y14099D01*
X43193Y14766D01*
X44526D01*
Y13433D01*
X42526Y16099D02*
X46525D01*
Y18098D01*
X45858Y18765D01*
X44526D01*
X43859Y18098D01*
Y16099D01*
X46525Y20097D02*
Y21430D01*
Y20764D01*
X42526D01*
Y20097D01*
Y21430D01*
X46525Y25429D02*
Y24096D01*
X45858Y23430D01*
X43193D01*
X42526Y24096D01*
Y25429D01*
X43193Y26096D01*
X45858D01*
X46525Y25429D01*
X42526Y29428D02*
X46525D01*
X44526Y27428D01*
Y30094D01*
X46525Y31427D02*
Y34093D01*
X45858D01*
X43193Y31427D01*
X42526D01*
X266432Y12100D02*
X267099Y12766D01*
Y14099D01*
X266432Y14766D01*
X265766D01*
X265099Y14099D01*
Y13433D01*
Y14099D01*
X264433Y14766D01*
X263766D01*
X263100Y14099D01*
Y12766D01*
X263766Y12100D01*
X267099Y16099D02*
X264433D01*
X263100Y17432D01*
X264433Y18765D01*
X267099D01*
X266432Y20097D02*
X267099Y20764D01*
Y22097D01*
X266432Y22763D01*
X265766D01*
X265099Y22097D01*
Y21430D01*
Y22097D01*
X264433Y22763D01*
X263766D01*
X263100Y22097D01*
Y20764D01*
X263766Y20097D01*
X247047Y14766D02*
X247713Y14099D01*
Y12766D01*
X247047Y12100D01*
X244381D01*
X243714Y12766D01*
Y14099D01*
X244381Y14766D01*
X247713Y16099D02*
X243714D01*
X245714D01*
Y18765D01*
X247713D01*
X243714D01*
X247713Y20097D02*
Y21430D01*
Y20764D01*
X243714D01*
Y20097D01*
Y21430D01*
Y23430D02*
X247713D01*
Y25429D01*
X247047Y26096D01*
X245714D01*
X245047Y25429D01*
Y23430D01*
X243048Y27428D02*
Y30094D01*
X247713Y31427D02*
X244381D01*
X243714Y32094D01*
Y33426D01*
X244381Y34093D01*
X247713D01*
X243714Y35426D02*
X247713D01*
Y37425D01*
X247047Y38092D01*
X245714D01*
X245047Y37425D01*
Y35426D01*
X256406Y14766D02*
X257073Y14099D01*
Y12766D01*
X256406Y12100D01*
X253740D01*
X253074Y12766D01*
Y14099D01*
X253740Y14766D01*
X255073D01*
Y13433D01*
X253074Y16099D02*
X257073D01*
X253074Y18765D01*
X257073D01*
Y20097D02*
X253074D01*
Y22097D01*
X253740Y22763D01*
X256406D01*
X257073Y22097D01*
Y20097D01*
X67244Y12100D02*
X63911D01*
X63245Y12766D01*
Y14099D01*
X63911Y14766D01*
X67244D01*
X66577Y18765D02*
X67244Y18098D01*
Y16765D01*
X66577Y16099D01*
X65911D01*
X65244Y16765D01*
Y18098D01*
X64578Y18765D01*
X63911D01*
X63245Y18098D01*
Y16765D01*
X63911Y16099D01*
X67244Y20097D02*
X63245D01*
Y22097D01*
X63911Y22763D01*
X64578D01*
X65244Y22097D01*
Y20097D01*
Y22097D01*
X65911Y22763D01*
X66577D01*
X67244Y22097D01*
Y20097D01*
X62578Y24096D02*
Y26762D01*
X63245Y28095D02*
X67244D01*
X63245Y30761D01*
X67244D01*
X136093Y14766D02*
X136760Y14099D01*
Y12766D01*
X136093Y12100D01*
X133427D01*
X132761Y12766D01*
Y14099D01*
X133427Y14766D01*
X134760D01*
Y13433D01*
X132761Y16099D02*
X136760D01*
Y18098D01*
X136093Y18765D01*
X134760D01*
X134094Y18098D01*
Y16099D01*
X136760Y20097D02*
Y21430D01*
Y20764D01*
X132761D01*
Y20097D01*
Y21430D01*
X136760Y25429D02*
Y24096D01*
X136093Y23430D01*
X133427D01*
X132761Y24096D01*
Y25429D01*
X133427Y26096D01*
X136093D01*
X136760Y25429D01*
X136093Y27428D02*
X136760Y28095D01*
Y29428D01*
X136093Y30094D01*
X135427D01*
X134760Y29428D01*
Y28761D01*
Y29428D01*
X134094Y30094D01*
X133427D01*
X132761Y29428D01*
Y28095D01*
X133427Y27428D01*
X136760Y34093D02*
X136093Y32760D01*
X134760Y31427D01*
X133427D01*
X132761Y32094D01*
Y33426D01*
X133427Y34093D01*
X134094D01*
X134760Y33426D01*
Y31427D01*
X146119Y14766D02*
X146786Y14099D01*
Y12766D01*
X146119Y12100D01*
X143454D01*
X142787Y12766D01*
Y14099D01*
X143454Y14766D01*
X144786D01*
Y13433D01*
X142787Y16099D02*
X146786D01*
Y18098D01*
X146119Y18765D01*
X144786D01*
X144120Y18098D01*
Y16099D01*
X146786Y20097D02*
Y21430D01*
Y20764D01*
X142787D01*
Y20097D01*
Y21430D01*
X146786Y25429D02*
Y24096D01*
X146119Y23430D01*
X143454D01*
X142787Y24096D01*
Y25429D01*
X143454Y26096D01*
X146119D01*
X146786Y25429D01*
X146119Y27428D02*
X146786Y28095D01*
Y29428D01*
X146119Y30094D01*
X145453D01*
X144786Y29428D01*
Y28761D01*
Y29428D01*
X144120Y30094D01*
X143454D01*
X142787Y29428D01*
Y28095D01*
X143454Y27428D01*
X146786Y31427D02*
Y34093D01*
X146119D01*
X143454Y31427D01*
X142787D01*
X85963Y14766D02*
X86629Y14099D01*
Y12766D01*
X85963Y12100D01*
X83297D01*
X82631Y12766D01*
Y14099D01*
X83297Y14766D01*
X84630D01*
Y13433D01*
X82631Y16099D02*
X86629D01*
Y18098D01*
X85963Y18765D01*
X84630D01*
X83964Y18098D01*
Y16099D01*
X86629Y20097D02*
Y21430D01*
Y20764D01*
X82631D01*
Y20097D01*
Y21430D01*
X86629Y25429D02*
Y24096D01*
X85963Y23430D01*
X83297D01*
X82631Y24096D01*
Y25429D01*
X83297Y26096D01*
X85963D01*
X86629Y25429D01*
X82631Y30094D02*
Y27428D01*
X85296Y30094D01*
X85963D01*
X86629Y29428D01*
Y28095D01*
X85963Y27428D01*
X82631Y31427D02*
Y32760D01*
Y32094D01*
X86629D01*
X85963Y31427D01*
X55885Y14766D02*
X56551Y14099D01*
Y12766D01*
X55885Y12100D01*
X53219D01*
X52552Y12766D01*
Y14099D01*
X53219Y14766D01*
X54552D01*
Y13433D01*
X52552Y16099D02*
X56551D01*
Y18098D01*
X55885Y18765D01*
X54552D01*
X53885Y18098D01*
Y16099D01*
X56551Y20097D02*
Y21430D01*
Y20764D01*
X52552D01*
Y20097D01*
Y21430D01*
X56551Y25429D02*
Y24096D01*
X55885Y23430D01*
X53219D01*
X52552Y24096D01*
Y25429D01*
X53219Y26096D01*
X55885D01*
X56551Y25429D01*
X52552Y29428D02*
X56551D01*
X54552Y27428D01*
Y30094D01*
X55885Y31427D02*
X56551Y32094D01*
Y33426D01*
X55885Y34093D01*
X55218D01*
X54552Y33426D01*
X53885Y34093D01*
X53219D01*
X52552Y33426D01*
Y32094D01*
X53219Y31427D01*
X53885D01*
X54552Y32094D01*
X55218Y31427D01*
X55885D01*
X54552Y32094D02*
Y33426D01*
X77270Y12100D02*
X73937D01*
X73271Y12766D01*
Y14099D01*
X73937Y14766D01*
X77270D01*
X76603Y18765D02*
X77270Y18098D01*
Y16765D01*
X76603Y16099D01*
X75937D01*
X75270Y16765D01*
Y18098D01*
X74604Y18765D01*
X73937D01*
X73271Y18098D01*
Y16765D01*
X73937Y16099D01*
X77270Y20097D02*
X73271D01*
Y22097D01*
X73937Y22763D01*
X74604D01*
X75270Y22097D01*
Y20097D01*
Y22097D01*
X75937Y22763D01*
X76603D01*
X77270Y22097D01*
Y20097D01*
X72605Y24096D02*
Y26762D01*
X73271Y28095D02*
X77270D01*
Y30094D01*
X76603Y30761D01*
X75270D01*
X74604Y30094D01*
Y28095D01*
X95989Y14766D02*
X96655Y14099D01*
Y12766D01*
X95989Y12100D01*
X93323D01*
X92657Y12766D01*
Y14099D01*
X93323Y14766D01*
X94656D01*
Y13433D01*
X92657Y16099D02*
X96655D01*
Y18098D01*
X95989Y18765D01*
X94656D01*
X93989Y18098D01*
Y16099D01*
X96655Y20097D02*
Y21430D01*
Y20764D01*
X92657D01*
Y20097D01*
Y21430D01*
X96655Y25429D02*
Y24096D01*
X95989Y23430D01*
X93323D01*
X92657Y24096D01*
Y25429D01*
X93323Y26096D01*
X95989D01*
X96655Y25429D01*
X92657Y30094D02*
Y27428D01*
X95322Y30094D01*
X95989D01*
X96655Y29428D01*
Y28095D01*
X95989Y27428D01*
X96655Y34093D02*
X95989Y32760D01*
X94656Y31427D01*
X93323D01*
X92657Y32094D01*
Y33426D01*
X93323Y34093D01*
X93989D01*
X94656Y33426D01*
Y31427D01*
X126067Y14766D02*
X126734Y14099D01*
Y12766D01*
X126067Y12100D01*
X123401D01*
X122735Y12766D01*
Y14099D01*
X123401Y14766D01*
X124734D01*
Y13433D01*
X122735Y16099D02*
X126734D01*
Y18098D01*
X126067Y18765D01*
X124734D01*
X124068Y18098D01*
Y16099D01*
X126734Y20097D02*
Y21430D01*
Y20764D01*
X122735D01*
Y20097D01*
Y21430D01*
X126734Y25429D02*
Y24096D01*
X126067Y23430D01*
X123401D01*
X122735Y24096D01*
Y25429D01*
X123401Y26096D01*
X126067D01*
X126734Y25429D01*
X126067Y27428D02*
X126734Y28095D01*
Y29428D01*
X126067Y30094D01*
X125401D01*
X124734Y29428D01*
Y28761D01*
Y29428D01*
X124068Y30094D01*
X123401D01*
X122735Y29428D01*
Y28095D01*
X123401Y27428D01*
X126734Y34093D02*
Y31427D01*
X124734D01*
X125401Y32760D01*
Y33426D01*
X124734Y34093D01*
X123401D01*
X122735Y33426D01*
Y32094D01*
X123401Y31427D01*
X116041Y14766D02*
X116708Y14099D01*
Y12766D01*
X116041Y12100D01*
X113375D01*
X112709Y12766D01*
Y14099D01*
X113375Y14766D01*
X114708D01*
Y13433D01*
X112709Y16099D02*
X116708D01*
Y18098D01*
X116041Y18765D01*
X114708D01*
X114042Y18098D01*
Y16099D01*
X116708Y20097D02*
Y21430D01*
Y20764D01*
X112709D01*
Y20097D01*
Y21430D01*
X116708Y25429D02*
Y24096D01*
X116041Y23430D01*
X113375D01*
X112709Y24096D01*
Y25429D01*
X113375Y26096D01*
X116041D01*
X116708Y25429D01*
X116041Y27428D02*
X116708Y28095D01*
Y29428D01*
X116041Y30094D01*
X115375D01*
X114708Y29428D01*
Y28761D01*
Y29428D01*
X114042Y30094D01*
X113375D01*
X112709Y29428D01*
Y28095D01*
X113375Y27428D01*
X112709Y33426D02*
X116708D01*
X114708Y31427D01*
Y34093D01*
X106015Y14766D02*
X106681Y14099D01*
Y12766D01*
X106015Y12100D01*
X103349D01*
X102683Y12766D01*
Y14099D01*
X103349Y14766D01*
X104682D01*
Y13433D01*
X102683Y16099D02*
X106681D01*
Y18098D01*
X106015Y18765D01*
X104682D01*
X104016Y18098D01*
Y16099D01*
X106681Y20097D02*
Y21430D01*
Y20764D01*
X102683D01*
Y20097D01*
Y21430D01*
X106681Y25429D02*
Y24096D01*
X106015Y23430D01*
X103349D01*
X102683Y24096D01*
Y25429D01*
X103349Y26096D01*
X106015D01*
X106681Y25429D01*
X106015Y27428D02*
X106681Y28095D01*
Y29428D01*
X106015Y30094D01*
X105349D01*
X104682Y29428D01*
Y28761D01*
Y29428D01*
X104016Y30094D01*
X103349D01*
X102683Y29428D01*
Y28095D01*
X103349Y27428D01*
X106015Y31427D02*
X106681Y32094D01*
Y33426D01*
X106015Y34093D01*
X105349D01*
X104682Y33426D01*
Y32760D01*
Y33426D01*
X104016Y34093D01*
X103349D01*
X102683Y33426D01*
Y32094D01*
X103349Y31427D01*
X166172Y14766D02*
X166838Y14099D01*
Y12766D01*
X166172Y12100D01*
X163506D01*
X162839Y12766D01*
Y14099D01*
X163506Y14766D01*
X164839D01*
Y13433D01*
X162839Y16099D02*
X166838D01*
Y18098D01*
X166172Y18765D01*
X164839D01*
X164172Y18098D01*
Y16099D01*
X166838Y20097D02*
Y21430D01*
Y20764D01*
X162839D01*
Y20097D01*
Y21430D01*
X166838Y25429D02*
Y24096D01*
X166172Y23430D01*
X163506D01*
X162839Y24096D01*
Y25429D01*
X163506Y26096D01*
X166172D01*
X166838Y25429D01*
X166172Y27428D02*
X166838Y28095D01*
Y29428D01*
X166172Y30094D01*
X165505D01*
X164839Y29428D01*
Y28761D01*
Y29428D01*
X164172Y30094D01*
X163506D01*
X162839Y29428D01*
Y28095D01*
X163506Y27428D01*
Y31427D02*
X162839Y32094D01*
Y33426D01*
X163506Y34093D01*
X166172D01*
X166838Y33426D01*
Y32094D01*
X166172Y31427D01*
X165505D01*
X164839Y32094D01*
Y34093D01*
X206942Y12100D02*
X203610D01*
X202943Y12766D01*
Y14099D01*
X203610Y14766D01*
X206942D01*
X206276Y16099D02*
X206942Y16765D01*
Y18098D01*
X206276Y18765D01*
X203610D01*
X202943Y18098D01*
Y16765D01*
X203610Y16099D01*
X206276D01*
X206942Y20097D02*
Y22763D01*
Y21430D01*
X202943D01*
X206942Y24096D02*
X202943Y26762D01*
X206942D02*
X202943Y24096D01*
X206942Y28095D02*
X202943D01*
Y30094D01*
X203610Y30761D01*
X206276D01*
X206942Y30094D01*
Y28095D01*
X176198Y14766D02*
X176864Y14099D01*
Y12766D01*
X176198Y12100D01*
X173532D01*
X172865Y12766D01*
Y14099D01*
X173532Y14766D01*
X174865D01*
Y13433D01*
X172865Y16099D02*
X176864D01*
Y18098D01*
X176198Y18765D01*
X174865D01*
X174198Y18098D01*
Y16099D01*
X176864Y20097D02*
Y21430D01*
Y20764D01*
X172865D01*
Y20097D01*
Y21430D01*
X176864Y25429D02*
Y24096D01*
X176198Y23430D01*
X173532D01*
X172865Y24096D01*
Y25429D01*
X173532Y26096D01*
X176198D01*
X176864Y25429D01*
X172865Y29428D02*
X176864D01*
X174865Y27428D01*
Y30094D01*
X176198Y31427D02*
X176864Y32094D01*
Y33426D01*
X176198Y34093D01*
X173532D01*
X172865Y33426D01*
Y32094D01*
X173532Y31427D01*
X176198D01*
X186224Y14766D02*
X186890Y14099D01*
Y12766D01*
X186224Y12100D01*
X183558D01*
X182891Y12766D01*
Y14099D01*
X183558Y14766D01*
X184891D01*
Y13433D01*
X182891Y16099D02*
X186890D01*
Y18098D01*
X186224Y18765D01*
X184891D01*
X184224Y18098D01*
Y16099D01*
X186890Y20097D02*
Y21430D01*
Y20764D01*
X182891D01*
Y20097D01*
Y21430D01*
X186890Y25429D02*
Y24096D01*
X186224Y23430D01*
X183558D01*
X182891Y24096D01*
Y25429D01*
X183558Y26096D01*
X186224D01*
X186890Y25429D01*
X182891Y29428D02*
X186890D01*
X184891Y27428D01*
Y30094D01*
X182891Y31427D02*
Y32760D01*
Y32094D01*
X186890D01*
X186224Y31427D01*
X196250Y14766D02*
X196916Y14099D01*
Y12766D01*
X196250Y12100D01*
X193584D01*
X192917Y12766D01*
Y14099D01*
X193584Y14766D01*
X194917D01*
Y13433D01*
X192917Y16099D02*
X196916D01*
Y18098D01*
X196250Y18765D01*
X194917D01*
X194250Y18098D01*
Y16099D01*
X196916Y20097D02*
Y21430D01*
Y20764D01*
X192917D01*
Y20097D01*
Y21430D01*
X196916Y25429D02*
Y24096D01*
X196250Y23430D01*
X193584D01*
X192917Y24096D01*
Y25429D01*
X193584Y26096D01*
X196250D01*
X196916Y25429D01*
X192917Y29428D02*
X196916D01*
X194917Y27428D01*
Y30094D01*
X192917Y34093D02*
Y31427D01*
X195583Y34093D01*
X196250D01*
X196916Y33426D01*
Y32094D01*
X196250Y31427D01*
X156145Y14766D02*
X156812Y14099D01*
Y12766D01*
X156145Y12100D01*
X153480D01*
X152813Y12766D01*
Y14099D01*
X153480Y14766D01*
X154813D01*
Y13433D01*
X152813Y16099D02*
X156812D01*
Y18098D01*
X156145Y18765D01*
X154813D01*
X154146Y18098D01*
Y16099D01*
X156812Y20097D02*
Y21430D01*
Y20764D01*
X152813D01*
Y20097D01*
Y21430D01*
X156812Y25429D02*
Y24096D01*
X156145Y23430D01*
X153480D01*
X152813Y24096D01*
Y25429D01*
X153480Y26096D01*
X156145D01*
X156812Y25429D01*
X156145Y27428D02*
X156812Y28095D01*
Y29428D01*
X156145Y30094D01*
X155479D01*
X154813Y29428D01*
Y28761D01*
Y29428D01*
X154146Y30094D01*
X153480D01*
X152813Y29428D01*
Y28095D01*
X153480Y27428D01*
X156145Y31427D02*
X156812Y32094D01*
Y33426D01*
X156145Y34093D01*
X155479D01*
X154813Y33426D01*
X154146Y34093D01*
X153480D01*
X152813Y33426D01*
Y32094D01*
X153480Y31427D01*
X154146D01*
X154813Y32094D01*
X155479Y31427D01*
X156145D01*
X154813Y32094D02*
Y33426D01*
X216968Y12100D02*
X213636D01*
X212970Y12766D01*
Y14099D01*
X213636Y14766D01*
X216968D01*
X216302Y16099D02*
X216968Y16765D01*
Y18098D01*
X216302Y18765D01*
X213636D01*
X212970Y18098D01*
Y16765D01*
X213636Y16099D01*
X216302D01*
X212970Y20097D02*
X216968D01*
Y22097D01*
X216302Y22763D01*
X214969D01*
X214302Y22097D01*
Y20097D01*
Y21430D02*
X212970Y22763D01*
X216968Y24096D02*
X212970Y26762D01*
X216968D02*
X212970Y24096D01*
X216968Y28095D02*
X212970D01*
Y30094D01*
X213636Y30761D01*
X216302D01*
X216968Y30094D01*
Y28095D01*
X236354Y14766D02*
X237020Y14099D01*
Y12766D01*
X236354Y12100D01*
X233688D01*
X233022Y12766D01*
Y14099D01*
X233688Y14766D01*
X235021D01*
Y13433D01*
X233022Y16099D02*
X237020D01*
Y18098D01*
X236354Y18765D01*
X235021D01*
X234355Y18098D01*
Y16099D01*
X237020Y20097D02*
Y21430D01*
Y20764D01*
X233022D01*
Y20097D01*
Y21430D01*
X237020Y25429D02*
Y24096D01*
X236354Y23430D01*
X233688D01*
X233022Y24096D01*
Y25429D01*
X233688Y26096D01*
X236354D01*
X237020Y25429D01*
X233022Y29428D02*
X237020D01*
X235021Y27428D01*
Y30094D01*
X237020Y34093D02*
X236354Y32760D01*
X235021Y31427D01*
X233688D01*
X233022Y32094D01*
Y33426D01*
X233688Y34093D01*
X234355D01*
X235021Y33426D01*
Y31427D01*
X226328Y14766D02*
X226994Y14099D01*
Y12766D01*
X226328Y12100D01*
X223662D01*
X222996Y12766D01*
Y14099D01*
X223662Y14766D01*
X224995D01*
Y13433D01*
X222996Y16099D02*
X226994D01*
Y18098D01*
X226328Y18765D01*
X224995D01*
X224329Y18098D01*
Y16099D01*
X226994Y20097D02*
Y21430D01*
Y20764D01*
X222996D01*
Y20097D01*
Y21430D01*
X226994Y25429D02*
Y24096D01*
X226328Y23430D01*
X223662D01*
X222996Y24096D01*
Y25429D01*
X223662Y26096D01*
X226328D01*
X226994Y25429D01*
X222996Y29428D02*
X226994D01*
X224995Y27428D01*
Y30094D01*
X226994Y34093D02*
Y31427D01*
X224995D01*
X225661Y32760D01*
Y33426D01*
X224995Y34093D01*
X223662D01*
X222996Y33426D01*
Y32094D01*
X223662Y31427D01*
X73672Y85234D02*
X73006Y85901D01*
Y87234D01*
X73672Y87900D01*
X76338D01*
X77004Y87234D01*
Y85901D01*
X76338Y85234D01*
X75005D01*
Y86567D01*
X77004Y83901D02*
X73006D01*
Y81902D01*
X73672Y81235D01*
X75005D01*
X75671Y81902D01*
Y83901D01*
X73006Y79903D02*
Y78570D01*
Y79236D01*
X77004D01*
Y79903D01*
Y78570D01*
X73006Y74571D02*
Y75904D01*
X73672Y76570D01*
X76338D01*
X77004Y75904D01*
Y74571D01*
X76338Y73905D01*
X73672D01*
X73006Y74571D01*
X77004Y72572D02*
Y71239D01*
Y71905D01*
X73006D01*
X73672Y72572D01*
X73006Y69239D02*
Y66574D01*
X73672D01*
X76338Y69239D01*
X77004D01*
X63646Y85234D02*
X62980Y85901D01*
Y87234D01*
X63646Y87900D01*
X66312D01*
X66978Y87234D01*
Y85901D01*
X66312Y85234D01*
X64979D01*
Y86567D01*
X66978Y83901D02*
X62980D01*
Y81902D01*
X63646Y81235D01*
X64979D01*
X65645Y81902D01*
Y83901D01*
X62980Y79903D02*
Y78570D01*
Y79236D01*
X66978D01*
Y79903D01*
Y78570D01*
X62980Y74571D02*
Y75904D01*
X63646Y76570D01*
X66312D01*
X66978Y75904D01*
Y74571D01*
X66312Y73905D01*
X63646D01*
X62980Y74571D01*
X66978Y72572D02*
Y71239D01*
Y71905D01*
X62980D01*
X63646Y72572D01*
Y69239D02*
X62980Y68573D01*
Y67240D01*
X63646Y66574D01*
X64312D01*
X64979Y67240D01*
X65645Y66574D01*
X66312D01*
X66978Y67240D01*
Y68573D01*
X66312Y69239D01*
X65645D01*
X64979Y68573D01*
X64312Y69239D01*
X63646D01*
X64979Y68573D02*
Y67240D01*
X83698Y85234D02*
X83032Y85901D01*
Y87234D01*
X83698Y87900D01*
X86364D01*
X87030Y87234D01*
Y85901D01*
X86364Y85234D01*
X85031D01*
Y86567D01*
X87030Y83901D02*
X83032D01*
Y81902D01*
X83698Y81235D01*
X85031D01*
X85698Y81902D01*
Y83901D01*
X83032Y79903D02*
Y78570D01*
Y79236D01*
X87030D01*
Y79903D01*
Y78570D01*
X83032Y74571D02*
Y75904D01*
X83698Y76570D01*
X86364D01*
X87030Y75904D01*
Y74571D01*
X86364Y73905D01*
X83698D01*
X83032Y74571D01*
X87030Y72572D02*
Y71239D01*
Y71905D01*
X83032D01*
X83698Y72572D01*
X83032Y66574D02*
X83698Y67906D01*
X85031Y69239D01*
X86364D01*
X87030Y68573D01*
Y67240D01*
X86364Y66574D01*
X85698D01*
X85031Y67240D01*
Y69239D01*
X143855Y85234D02*
X143188Y85901D01*
Y87234D01*
X143855Y87900D01*
X146520D01*
X147187Y87234D01*
Y85901D01*
X146520Y85234D01*
X145187D01*
Y86567D01*
X147187Y83901D02*
X143188D01*
Y81902D01*
X143855Y81235D01*
X145187D01*
X145854Y81902D01*
Y83901D01*
X143188Y79903D02*
Y78570D01*
Y79236D01*
X147187D01*
Y79903D01*
Y78570D01*
X143188Y74571D02*
Y75904D01*
X143855Y76570D01*
X146520D01*
X147187Y75904D01*
Y74571D01*
X146520Y73905D01*
X143855D01*
X143188Y74571D01*
X147187Y72572D02*
Y71239D01*
Y71905D01*
X143188D01*
X143855Y72572D01*
Y69239D02*
X143188Y68573D01*
Y67240D01*
X143855Y66574D01*
X146520D01*
X147187Y67240D01*
Y68573D01*
X146520Y69239D01*
X143855D01*
X103750Y85234D02*
X103084Y85901D01*
Y87234D01*
X103750Y87900D01*
X106416D01*
X107083Y87234D01*
Y85901D01*
X106416Y85234D01*
X105083D01*
Y86567D01*
X107083Y83901D02*
X103084D01*
Y81902D01*
X103750Y81235D01*
X105083D01*
X105750Y81902D01*
Y83901D01*
X103084Y79903D02*
Y78570D01*
Y79236D01*
X107083D01*
Y79903D01*
Y78570D01*
X103084Y74571D02*
Y75904D01*
X103750Y76570D01*
X106416D01*
X107083Y75904D01*
Y74571D01*
X106416Y73905D01*
X103750D01*
X103084Y74571D01*
X107083Y72572D02*
Y71239D01*
Y71905D01*
X103084D01*
X103750Y72572D01*
X107083Y67240D02*
X103084D01*
X105083Y69239D01*
Y66574D01*
X113776Y85234D02*
X113110Y85901D01*
Y87234D01*
X113776Y87900D01*
X116442D01*
X117109Y87234D01*
Y85901D01*
X116442Y85234D01*
X115109D01*
Y86567D01*
X117109Y83901D02*
X113110D01*
Y81902D01*
X113776Y81235D01*
X115109D01*
X115776Y81902D01*
Y83901D01*
X113110Y79903D02*
Y78570D01*
Y79236D01*
X117109D01*
Y79903D01*
Y78570D01*
X113110Y74571D02*
Y75904D01*
X113776Y76570D01*
X116442D01*
X117109Y75904D01*
Y74571D01*
X116442Y73905D01*
X113776D01*
X113110Y74571D01*
X117109Y72572D02*
Y71239D01*
Y71905D01*
X113110D01*
X113776Y72572D01*
Y69239D02*
X113110Y68573D01*
Y67240D01*
X113776Y66574D01*
X114443D01*
X115109Y67240D01*
Y67906D01*
Y67240D01*
X115776Y66574D01*
X116442D01*
X117109Y67240D01*
Y68573D01*
X116442Y69239D01*
X123802Y85234D02*
X123136Y85901D01*
Y87234D01*
X123802Y87900D01*
X126468D01*
X127135Y87234D01*
Y85901D01*
X126468Y85234D01*
X125135D01*
Y86567D01*
X127135Y83901D02*
X123136D01*
Y81902D01*
X123802Y81235D01*
X125135D01*
X125802Y81902D01*
Y83901D01*
X123136Y79903D02*
Y78570D01*
Y79236D01*
X127135D01*
Y79903D01*
Y78570D01*
X123136Y74571D02*
Y75904D01*
X123802Y76570D01*
X126468D01*
X127135Y75904D01*
Y74571D01*
X126468Y73905D01*
X123802D01*
X123136Y74571D01*
X127135Y72572D02*
Y71239D01*
Y71905D01*
X123136D01*
X123802Y72572D01*
X127135Y66574D02*
Y69239D01*
X124469Y66574D01*
X123802D01*
X123136Y67240D01*
Y68573D01*
X123802Y69239D01*
X93724Y85234D02*
X93058Y85901D01*
Y87234D01*
X93724Y87900D01*
X96390D01*
X97057Y87234D01*
Y85901D01*
X96390Y85234D01*
X95057D01*
Y86567D01*
X97057Y83901D02*
X93058D01*
Y81902D01*
X93724Y81235D01*
X95057D01*
X95724Y81902D01*
Y83901D01*
X93058Y79903D02*
Y78570D01*
Y79236D01*
X97057D01*
Y79903D01*
Y78570D01*
X93058Y74571D02*
Y75904D01*
X93724Y76570D01*
X96390D01*
X97057Y75904D01*
Y74571D01*
X96390Y73905D01*
X93724D01*
X93058Y74571D01*
X97057Y72572D02*
Y71239D01*
Y71905D01*
X93058D01*
X93724Y72572D01*
X93058Y66574D02*
Y69239D01*
X95057D01*
X94391Y67906D01*
Y67240D01*
X95057Y66574D01*
X96390D01*
X97057Y67240D01*
Y68573D01*
X96390Y69239D01*
X133828Y85234D02*
X133162Y85901D01*
Y87234D01*
X133828Y87900D01*
X136494D01*
X137161Y87234D01*
Y85901D01*
X136494Y85234D01*
X135161D01*
Y86567D01*
X137161Y83901D02*
X133162D01*
Y81902D01*
X133828Y81235D01*
X135161D01*
X135828Y81902D01*
Y83901D01*
X133162Y79903D02*
Y78570D01*
Y79236D01*
X137161D01*
Y79903D01*
Y78570D01*
X133162Y74571D02*
Y75904D01*
X133828Y76570D01*
X136494D01*
X137161Y75904D01*
Y74571D01*
X136494Y73905D01*
X133828D01*
X133162Y74571D01*
X137161Y72572D02*
Y71239D01*
Y71905D01*
X133162D01*
X133828Y72572D01*
X137161Y69239D02*
Y67906D01*
Y68573D01*
X133162D01*
X133828Y69239D01*
X193985Y85234D02*
X193319Y85901D01*
Y87234D01*
X193985Y87900D01*
X196651D01*
X197317Y87234D01*
Y85901D01*
X196651Y85234D01*
X195318D01*
Y86567D01*
X197317Y83901D02*
X193319D01*
Y81902D01*
X193985Y81235D01*
X195318D01*
X195984Y81902D01*
Y83901D01*
X193319Y79903D02*
Y78570D01*
Y79236D01*
X197317D01*
Y79903D01*
Y78570D01*
X193319Y74571D02*
Y75904D01*
X193985Y76570D01*
X196651D01*
X197317Y75904D01*
Y74571D01*
X196651Y73905D01*
X193985D01*
X193319Y74571D01*
Y69906D02*
Y72572D01*
X195318D01*
X194651Y71239D01*
Y70572D01*
X195318Y69906D01*
X196651D01*
X197317Y70572D01*
Y71905D01*
X196651Y72572D01*
X183959Y85234D02*
X183292Y85901D01*
Y87234D01*
X183959Y87900D01*
X186625D01*
X187291Y87234D01*
Y85901D01*
X186625Y85234D01*
X185292D01*
Y86567D01*
X187291Y83901D02*
X183292D01*
Y81902D01*
X183959Y81235D01*
X185292D01*
X185958Y81902D01*
Y83901D01*
X183292Y79903D02*
Y78570D01*
Y79236D01*
X187291D01*
Y79903D01*
Y78570D01*
X183292Y74571D02*
Y75904D01*
X183959Y76570D01*
X186625D01*
X187291Y75904D01*
Y74571D01*
X186625Y73905D01*
X183959D01*
X183292Y74571D01*
Y69906D02*
X183959Y71239D01*
X185292Y72572D01*
X186625D01*
X187291Y71905D01*
Y70572D01*
X186625Y69906D01*
X185958D01*
X185292Y70572D01*
Y72572D01*
X173933Y85234D02*
X173266Y85901D01*
Y87234D01*
X173933Y87900D01*
X176599D01*
X177265Y87234D01*
Y85901D01*
X176599Y85234D01*
X175266D01*
Y86567D01*
X177265Y83901D02*
X173266D01*
Y81902D01*
X173933Y81235D01*
X175266D01*
X175932Y81902D01*
Y83901D01*
X173266Y79903D02*
Y78570D01*
Y79236D01*
X177265D01*
Y79903D01*
Y78570D01*
X173266Y74571D02*
Y75904D01*
X173933Y76570D01*
X176599D01*
X177265Y75904D01*
Y74571D01*
X176599Y73905D01*
X173933D01*
X173266Y74571D01*
Y72572D02*
Y69906D01*
X173933D01*
X176599Y72572D01*
X177265D01*
X204011Y85234D02*
X203345Y85901D01*
Y87234D01*
X204011Y87900D01*
X206677D01*
X207343Y87234D01*
Y85901D01*
X206677Y85234D01*
X205344D01*
Y86567D01*
X207343Y83901D02*
X203345D01*
Y81902D01*
X204011Y81235D01*
X205344D01*
X206011Y81902D01*
Y83901D01*
X203345Y79903D02*
Y78570D01*
Y79236D01*
X207343D01*
Y79903D01*
Y78570D01*
X203345Y74571D02*
Y75904D01*
X204011Y76570D01*
X206677D01*
X207343Y75904D01*
Y74571D01*
X206677Y73905D01*
X204011D01*
X203345Y74571D01*
X207343Y70572D02*
X203345D01*
X205344Y72572D01*
Y69906D01*
X224063Y85234D02*
X223397Y85901D01*
Y87234D01*
X224063Y87900D01*
X226729D01*
X227396Y87234D01*
Y85901D01*
X226729Y85234D01*
X225396D01*
Y86567D01*
X227396Y83901D02*
X223397D01*
Y81902D01*
X224063Y81235D01*
X225396D01*
X226063Y81902D01*
Y83901D01*
X223397Y79903D02*
Y78570D01*
Y79236D01*
X227396D01*
Y79903D01*
Y78570D01*
X223397Y74571D02*
Y75904D01*
X224063Y76570D01*
X226729D01*
X227396Y75904D01*
Y74571D01*
X226729Y73905D01*
X224063D01*
X223397Y74571D01*
X227396Y69906D02*
Y72572D01*
X224730Y69906D01*
X224063D01*
X223397Y70572D01*
Y71905D01*
X224063Y72572D01*
X244115Y85234D02*
X243449Y85901D01*
Y87234D01*
X244115Y87900D01*
X246781D01*
X247448Y87234D01*
Y85901D01*
X246781Y85234D01*
X245448D01*
Y86567D01*
X247448Y83901D02*
X243449D01*
Y81902D01*
X244115Y81235D01*
X245448D01*
X246115Y81902D01*
Y83901D01*
X243449Y79903D02*
Y78570D01*
Y79236D01*
X247448D01*
Y79903D01*
Y78570D01*
X243449Y74571D02*
Y75904D01*
X244115Y76570D01*
X246781D01*
X247448Y75904D01*
Y74571D01*
X246781Y73905D01*
X244115D01*
X243449Y74571D01*
X244115Y72572D02*
X243449Y71905D01*
Y70572D01*
X244115Y69906D01*
X246781D01*
X247448Y70572D01*
Y71905D01*
X246781Y72572D01*
X244115D01*
X214037Y85234D02*
X213371Y85901D01*
Y87234D01*
X214037Y87900D01*
X216703D01*
X217369Y87234D01*
Y85901D01*
X216703Y85234D01*
X215370D01*
Y86567D01*
X217369Y83901D02*
X213371D01*
Y81902D01*
X214037Y81235D01*
X215370D01*
X216037Y81902D01*
Y83901D01*
X213371Y79903D02*
Y78570D01*
Y79236D01*
X217369D01*
Y79903D01*
Y78570D01*
X213371Y74571D02*
Y75904D01*
X214037Y76570D01*
X216703D01*
X217369Y75904D01*
Y74571D01*
X216703Y73905D01*
X214037D01*
X213371Y74571D01*
X214037Y72572D02*
X213371Y71905D01*
Y70572D01*
X214037Y69906D01*
X214704D01*
X215370Y70572D01*
Y71239D01*
Y70572D01*
X216037Y69906D01*
X216703D01*
X217369Y70572D01*
Y71905D01*
X216703Y72572D01*
X153881Y85234D02*
X153214Y85901D01*
Y87234D01*
X153881Y87900D01*
X156546D01*
X157213Y87234D01*
Y85901D01*
X156546Y85234D01*
X155214D01*
Y86567D01*
X157213Y83901D02*
X153214D01*
Y81902D01*
X153881Y81235D01*
X155214D01*
X155880Y81902D01*
Y83901D01*
X153214Y79903D02*
Y78570D01*
Y79236D01*
X157213D01*
Y79903D01*
Y78570D01*
X153214Y74571D02*
Y75904D01*
X153881Y76570D01*
X156546D01*
X157213Y75904D01*
Y74571D01*
X156546Y73905D01*
X153881D01*
X153214Y74571D01*
X156546Y72572D02*
X157213Y71905D01*
Y70572D01*
X156546Y69906D01*
X153881D01*
X153214Y70572D01*
Y71905D01*
X153881Y72572D01*
X154547D01*
X155214Y71905D01*
Y69906D01*
X163907Y85234D02*
X163240Y85901D01*
Y87234D01*
X163907Y87900D01*
X166573D01*
X167239Y87234D01*
Y85901D01*
X166573Y85234D01*
X165240D01*
Y86567D01*
X167239Y83901D02*
X163240D01*
Y81902D01*
X163907Y81235D01*
X165240D01*
X165906Y81902D01*
Y83901D01*
X163240Y79903D02*
Y78570D01*
Y79236D01*
X167239D01*
Y79903D01*
Y78570D01*
X163240Y74571D02*
Y75904D01*
X163907Y76570D01*
X166573D01*
X167239Y75904D01*
Y74571D01*
X166573Y73905D01*
X163907D01*
X163240Y74571D01*
X163907Y72572D02*
X163240Y71905D01*
Y70572D01*
X163907Y69906D01*
X164573D01*
X165240Y70572D01*
X165906Y69906D01*
X166573D01*
X167239Y70572D01*
Y71905D01*
X166573Y72572D01*
X165906D01*
X165240Y71905D01*
X164573Y72572D01*
X163907D01*
X165240Y71905D02*
Y70572D01*
X234089Y85234D02*
X233423Y85901D01*
Y87234D01*
X234089Y87900D01*
X236755D01*
X237422Y87234D01*
Y85901D01*
X236755Y85234D01*
X235422D01*
Y86567D01*
X237422Y83901D02*
X233423D01*
Y81902D01*
X234089Y81235D01*
X235422D01*
X236089Y81902D01*
Y83901D01*
X233423Y79903D02*
Y78570D01*
Y79236D01*
X237422D01*
Y79903D01*
Y78570D01*
X233423Y74571D02*
Y75904D01*
X234089Y76570D01*
X236755D01*
X237422Y75904D01*
Y74571D01*
X236755Y73905D01*
X234089D01*
X233423Y74571D01*
X237422Y72572D02*
Y71239D01*
Y71905D01*
X233423D01*
X234089Y72572D01*
X255474Y87900D02*
Y85234D01*
X254141Y86567D02*
X256807D01*
X254141Y83901D02*
X253475Y83235D01*
Y81902D01*
X254141Y81235D01*
X254808D01*
X255474Y81902D01*
Y82568D01*
Y81902D01*
X256141Y81235D01*
X256807D01*
X257474Y81902D01*
Y83235D01*
X256807Y83901D01*
X253475Y79903D02*
X256141D01*
X257474Y78570D01*
X256141Y77237D01*
X253475D01*
X254141Y75904D02*
X253475Y75237D01*
Y73905D01*
X254141Y73238D01*
X254808D01*
X255474Y73905D01*
Y74571D01*
Y73905D01*
X256141Y73238D01*
X256807D01*
X257474Y73905D01*
Y75237D01*
X256807Y75904D01*
X43594Y85234D02*
X42927Y85901D01*
Y87234D01*
X43594Y87900D01*
X46260D01*
X46926Y87234D01*
Y85901D01*
X46260Y85234D01*
X44927D01*
Y86567D01*
X46926Y83901D02*
X42927D01*
X46926Y81235D01*
X42927D01*
Y79903D02*
X46926D01*
Y77903D01*
X46260Y77237D01*
X43594D01*
X42927Y77903D01*
Y79903D01*
X36900Y87900D02*
X32901D01*
X36900Y85234D01*
X32901D01*
X33568Y81235D02*
X32901Y81902D01*
Y83235D01*
X33568Y83901D01*
X36234D01*
X36900Y83235D01*
Y81902D01*
X36234Y81235D01*
X52953Y85234D02*
Y87900D01*
X54953D01*
X54286Y86567D01*
Y85901D01*
X54953Y85234D01*
X56286D01*
X56952Y85901D01*
Y87234D01*
X56286Y87900D01*
X52953Y83901D02*
X55619D01*
X56952Y82568D01*
X55619Y81235D01*
X52953D01*
M02*
